<svg xmlns="http://www.w3.org/2000/svg" xmlns:xlink="http://www.w3.org/1999/xlink" width="431" zoomAndPan="magnify" viewBox="0 0 323.25 323.999988" height="432" preserveAspectRatio="xMidYMid meet" version="1.2"><defs><clipPath id="e1a0b3909e"><path d="M 3 8 L 319 8 L 319 323.625 L 3 323.625 Z M 3 8 "/></clipPath><clipPath id="172bf57d7c"><path d="M 45 272 L 277 272 L 277 323.625 L 45 323.625 Z M 45 272 "/></clipPath><clipPath id="ac3ae552c6"><path d="M 173 0.375 L 219 0.375 L 219 46 L 173 46 Z M 173 0.375 "/></clipPath><clipPath id="7475084f68"><path d="M 283 145 L 321.753906 145 L 321.753906 169 L 283 169 Z M 283 145 "/></clipPath><clipPath id="ade8a5db17"><path d="M 147.460938 242.601562 L 233.183594 242.601562 L 233.183594 270.699219 L 147.460938 270.699219 Z M 147.460938 242.601562 "/></clipPath><clipPath id="2304b8fe95"><path d="M 161.507812 242.601562 L 219.101562 242.601562 C 222.828125 242.601562 226.402344 244.082031 229.035156 246.714844 C 231.671875 249.351562 233.152344 252.925781 233.152344 256.648438 C 233.152344 260.375 231.671875 263.949219 229.035156 266.585938 C 226.402344 269.21875 222.828125 270.699219 219.101562 270.699219 L 161.507812 270.699219 C 157.785156 270.699219 154.210938 269.21875 151.574219 266.585938 C 148.941406 263.949219 147.460938 260.375 147.460938 256.648438 C 147.460938 252.925781 148.941406 249.351562 151.574219 246.714844 C 154.210938 244.082031 157.785156 242.601562 161.507812 242.601562 Z M 161.507812 242.601562 "/></clipPath><clipPath id="3dae2cad04"><path d="M 157 281 L 189.164062 281 L 189.164062 313.054688 L 157 313.054688 Z M 157 281 "/></clipPath></defs><g id="3ce369079b"><g clip-rule="nonzero" clip-path="url(#e1a0b3909e)"><path style=" stroke:none;fill-rule:nonzero;fill:#fdda7f;fill-opacity:1;" d="M 318.578125 165.980469 C 318.578125 168.558594 318.511719 171.136719 318.386719 173.714844 C 318.261719 176.292969 318.070312 178.863281 317.816406 181.429688 C 317.566406 184 317.25 186.558594 316.871094 189.109375 C 316.492188 191.664062 316.054688 194.203125 315.550781 196.734375 C 315.046875 199.265625 314.484375 201.78125 313.855469 204.285156 C 313.230469 206.785156 312.542969 209.273438 311.792969 211.742188 C 311.046875 214.210938 310.238281 216.660156 309.371094 219.089844 C 308.5 221.519531 307.574219 223.925781 306.585938 226.308594 C 305.601562 228.691406 304.554688 231.050781 303.453125 233.382812 C 302.351562 235.714844 301.195312 238.015625 299.976562 240.292969 C 298.761719 242.566406 297.492188 244.8125 296.167969 247.023438 C 294.84375 249.238281 293.464844 251.417969 292.03125 253.5625 C 290.597656 255.707031 289.117188 257.816406 287.582031 259.886719 C 286.042969 261.960938 284.460938 263.996094 282.824219 265.988281 C 281.1875 267.984375 279.503906 269.9375 277.773438 271.847656 C 276.042969 273.757812 274.265625 275.628906 272.445312 277.453125 C 270.621094 279.277344 268.753906 281.054688 266.84375 282.785156 C 264.933594 284.519531 262.984375 286.203125 260.992188 287.839844 C 258.996094 289.476562 256.964844 291.066406 254.894531 292.601562 C 252.824219 294.136719 250.71875 295.625 248.574219 297.058594 C 246.433594 298.488281 244.253906 299.871094 242.042969 301.195312 C 239.832031 302.523438 237.589844 303.792969 235.316406 305.011719 C 233.042969 306.226562 230.742188 307.386719 228.410156 308.488281 C 226.082031 309.59375 223.726562 310.636719 221.34375 311.625 C 218.960938 312.613281 216.558594 313.539062 214.132812 314.410156 C 211.703125 315.277344 209.257812 316.085938 206.789062 316.835938 C 204.324219 317.585938 201.839844 318.273438 199.339844 318.902344 C 196.839844 319.527344 194.324219 320.09375 191.796875 320.597656 C 189.269531 321.097656 186.730469 321.539062 184.179688 321.917969 C 181.628906 322.296875 179.070312 322.613281 176.507812 322.867188 C 173.941406 323.117188 171.371094 323.308594 168.796875 323.433594 C 166.222656 323.5625 163.644531 323.625 161.066406 323.625 C 158.492188 323.625 155.914062 323.5625 153.339844 323.433594 C 150.765625 323.308594 148.195312 323.117188 145.628906 322.867188 C 143.0625 322.613281 140.507812 322.296875 137.957031 321.917969 C 135.40625 321.539062 132.867188 321.097656 130.339844 320.597656 C 127.8125 320.09375 125.296875 319.527344 122.796875 318.902344 C 120.296875 318.273438 117.8125 317.585938 115.347656 316.835938 C 112.878906 316.085938 110.433594 315.277344 108.003906 314.410156 C 105.578125 313.539062 103.175781 312.613281 100.792969 311.625 C 98.410156 310.636719 96.054688 309.59375 93.726562 308.488281 C 91.394531 307.386719 89.09375 306.226562 86.820312 305.011719 C 84.546875 303.792969 82.304688 302.523438 80.09375 301.195312 C 77.882812 299.871094 75.703125 298.488281 73.5625 297.058594 C 71.417969 295.625 69.3125 294.136719 67.242188 292.601562 C 65.171875 291.066406 63.136719 289.476562 61.144531 287.839844 C 59.152344 286.203125 57.203125 284.519531 55.292969 282.785156 C 53.382812 281.054688 51.515625 279.277344 49.691406 277.453125 C 47.871094 275.628906 46.09375 273.757812 44.363281 271.847656 C 42.632812 269.9375 40.949219 267.984375 39.3125 265.988281 C 37.675781 263.996094 36.09375 261.960938 34.554688 259.890625 C 33.019531 257.816406 31.535156 255.707031 30.105469 253.5625 C 28.671875 251.417969 27.292969 249.238281 25.96875 247.023438 C 24.644531 244.8125 23.375 242.566406 22.160156 240.292969 C 20.941406 238.015625 19.785156 235.714844 18.683594 233.382812 C 17.582031 231.050781 16.535156 228.691406 15.550781 226.308594 C 14.5625 223.925781 13.636719 221.519531 12.765625 219.089844 C 11.898438 216.660156 11.089844 214.210938 10.34375 211.742188 C 9.59375 209.273438 8.90625 206.785156 8.28125 204.285156 C 7.652344 201.78125 7.089844 199.265625 6.585938 196.734375 C 6.082031 194.203125 5.644531 191.664062 5.265625 189.109375 C 4.886719 186.558594 4.570312 184 4.316406 181.429688 C 4.066406 178.863281 3.875 176.292969 3.75 173.714844 C 3.625 171.136719 3.558594 168.558594 3.558594 165.980469 C 3.558594 163.398438 3.625 160.820312 3.75 158.242188 C 3.875 155.667969 4.066406 153.09375 4.316406 150.527344 C 4.570312 147.960938 4.886719 145.398438 5.265625 142.847656 C 5.644531 140.296875 6.082031 137.753906 6.585938 135.222656 C 7.089844 132.695312 7.652344 130.175781 8.28125 127.675781 C 8.90625 125.171875 9.59375 122.6875 10.34375 120.21875 C 11.089844 117.75 11.898438 115.300781 12.765625 112.871094 C 13.636719 110.441406 14.5625 108.035156 15.550781 105.652344 C 16.535156 103.265625 17.582031 100.910156 18.683594 98.578125 C 19.785156 96.246094 20.941406 93.941406 22.160156 91.664062 C 23.375 89.390625 24.644531 87.144531 25.96875 84.933594 C 27.292969 82.71875 28.671875 80.542969 30.105469 78.394531 C 31.535156 76.25 33.019531 74.140625 34.554688 72.070312 C 36.09375 69.996094 37.675781 67.964844 39.3125 65.96875 C 40.949219 63.976562 42.632812 62.023438 44.363281 60.109375 C 46.09375 58.199219 47.871094 56.332031 49.691406 54.507812 C 51.515625 52.683594 53.382812 50.902344 55.292969 49.171875 C 57.203125 47.4375 59.152344 45.753906 61.144531 44.117188 C 63.136719 42.480469 65.171875 40.894531 67.242188 39.355469 C 69.3125 37.820312 71.417969 36.335938 73.5625 34.902344 C 75.703125 33.46875 77.882812 32.089844 80.09375 30.761719 C 82.304688 29.4375 84.546875 28.164062 86.820312 26.949219 C 89.09375 25.730469 91.394531 24.570312 93.726562 23.46875 C 96.054688 22.367188 98.410156 21.320312 100.792969 20.332031 C 103.175781 19.347656 105.578125 18.417969 108.003906 17.546875 C 110.433594 16.679688 112.878906 15.871094 115.347656 15.121094 C 117.8125 14.371094 120.296875 13.683594 122.796875 13.058594 C 125.296875 12.429688 127.8125 11.867188 130.339844 11.363281 C 132.867188 10.859375 135.40625 10.417969 137.957031 10.039062 C 140.507812 9.660156 143.0625 9.34375 145.628906 9.09375 C 148.195312 8.839844 150.765625 8.648438 153.339844 8.523438 C 155.914062 8.398438 158.492188 8.332031 161.066406 8.332031 C 163.644531 8.332031 166.222656 8.398438 168.796875 8.523438 C 171.371094 8.648438 173.941406 8.839844 176.507812 9.09375 C 179.070312 9.34375 181.628906 9.660156 184.179688 10.039062 C 186.730469 10.417969 189.269531 10.859375 191.796875 11.363281 C 194.324219 11.867188 196.839844 12.429688 199.339844 13.058594 C 201.839844 13.683594 204.324219 14.371094 206.789062 15.121094 C 209.257812 15.871094 211.703125 16.679688 214.132812 17.546875 C 216.558594 18.417969 218.960938 19.347656 221.34375 20.332031 C 223.726562 21.320312 226.082031 22.367188 228.410156 23.46875 C 230.742188 24.570312 233.042969 25.730469 235.316406 26.949219 C 237.589844 28.164062 239.832031 29.4375 242.042969 30.761719 C 244.253906 32.089844 246.433594 33.46875 248.574219 34.902344 C 250.71875 36.335938 252.824219 37.820312 254.894531 39.355469 C 256.964844 40.894531 258.996094 42.480469 260.992188 44.117188 C 262.984375 45.753906 264.933594 47.4375 266.84375 49.171875 C 268.753906 50.902344 270.621094 52.683594 272.445312 54.507812 C 274.265625 56.332031 276.042969 58.199219 277.773438 60.109375 C 279.503906 62.023438 281.1875 63.976562 282.824219 65.96875 C 284.460938 67.964844 286.042969 69.996094 287.582031 72.070312 C 289.117188 74.140625 290.597656 76.25 292.03125 78.394531 C 293.464844 80.542969 294.84375 82.71875 296.167969 84.933594 C 297.492188 87.144531 298.761719 89.390625 299.976562 91.664062 C 301.195312 93.941406 302.351562 96.246094 303.453125 98.578125 C 304.554688 100.910156 305.601562 103.265625 306.585938 105.652344 C 307.574219 108.035156 308.5 110.441406 309.371094 112.871094 C 310.238281 115.300781 311.046875 117.75 311.792969 120.21875 C 312.542969 122.6875 313.230469 125.171875 313.855469 127.675781 C 314.484375 130.175781 315.046875 132.695312 315.550781 135.222656 C 316.054688 137.753906 316.492188 140.296875 316.871094 142.847656 C 317.25 145.398438 317.566406 147.960938 317.816406 150.527344 C 318.070312 153.09375 318.261719 155.667969 318.386719 158.242188 C 318.511719 160.820312 318.578125 163.398438 318.578125 165.980469 Z M 318.578125 165.980469 "/></g><g clip-rule="nonzero" clip-path="url(#172bf57d7c)"><path style=" stroke:none;fill-rule:nonzero;fill:#f7bb52;fill-opacity:1;" d="M 45.199219 272.753906 C 73.984375 304.027344 115.234375 323.625 161.066406 323.625 C 206.902344 323.625 248.152344 304.027344 276.9375 272.753906 Z M 45.199219 272.753906 "/></g><path style=" stroke:none;fill-rule:nonzero;fill:#f2f2f2;fill-opacity:1;" d="M 114.246094 65.800781 C 114.246094 76.390625 105.660156 84.984375 95.066406 84.984375 L 21.273438 84.984375 C 9.664062 84.984375 0.253906 75.566406 0.253906 63.949219 C 0.253906 53.886719 7.3125 45.476562 16.742188 43.40625 C 11.835938 26.179688 24.804688 8.917969 42.785156 8.917969 C 52.085938 8.917969 60.289062 13.609375 65.167969 20.757812 C 69.5 19.566406 74.195312 19.464844 78.855469 20.664062 C 91.066406 23.816406 99.132812 34.902344 98.949219 46.988281 C 107.679688 48.792969 114.246094 56.527344 114.246094 65.800781 Z M 114.246094 65.800781 "/><path style=" stroke:none;fill-rule:nonzero;fill:#464e58;fill-opacity:1;" d="M 25.546875 68.445312 L 25.546875 52.609375 L 28.21875 52.609375 L 28.21875 59.476562 L 36.074219 59.476562 L 36.074219 52.609375 L 38.746094 52.609375 L 38.746094 68.445312 L 36.074219 68.445312 L 36.074219 61.96875 L 28.21875 61.96875 L 28.21875 68.449219 L 25.546875 68.449219 Z M 25.546875 68.445312 "/><path style=" stroke:none;fill-rule:nonzero;fill:#464e58;fill-opacity:1;" d="M 49.113281 55.058594 L 49.113281 68.449219 L 46.441406 68.449219 L 46.441406 55.058594 L 41.640625 55.058594 L 41.640625 52.609375 L 53.910156 52.609375 L 53.910156 55.058594 Z M 49.113281 55.058594 "/><path style=" stroke:none;fill-rule:nonzero;fill:#464e58;fill-opacity:1;" d="M 59.480469 68.445312 L 56.808594 68.445312 L 56.808594 52.609375 L 60.972656 52.609375 L 65.75 62.554688 L 70.527344 52.609375 L 74.667969 52.609375 L 74.667969 68.445312 L 71.996094 68.445312 L 71.996094 56.074219 L 66.476562 67.066406 L 64.980469 67.066406 L 59.480469 56.074219 Z M 59.480469 68.445312 "/><path style=" stroke:none;fill-rule:nonzero;fill:#464e58;fill-opacity:1;" d="M 79.0625 68.445312 L 79.0625 52.609375 L 81.730469 52.609375 L 81.730469 65.910156 L 88.953125 65.910156 L 88.953125 68.445312 Z M 79.0625 68.445312 "/><path style=" stroke:none;fill-rule:nonzero;fill:#464e58;fill-opacity:1;" d="M 172.242188 47.226562 L 179.457031 43.195312 L 177.292969 35.921875 L 169.050781 36.484375 C 168.035156 34.828125 166.804688 33.285156 165.347656 31.917969 L 167.613281 23.980469 L 160.929688 20.359375 L 155.523438 26.582031 C 153.582031 26.113281 151.644531 25.917969 149.699219 25.980469 L 145.660156 18.769531 L 138.390625 20.925781 L 138.949219 29.171875 C 137.285156 30.1875 135.769531 31.421875 134.390625 32.863281 L 126.460938 30.628906 L 122.855469 37.289062 L 129.058594 42.710938 C 128.605469 44.644531 128.410156 46.609375 128.46875 48.558594 L 121.253906 52.589844 L 123.417969 59.863281 L 131.65625 59.304688 C 132.660156 60.96875 133.890625 62.5 135.332031 63.867188 L 133.082031 71.804688 L 139.75 75.425781 L 145.171875 69.203125 C 147.101562 69.65625 149.082031 69.867188 151.011719 69.808594 L 155.039062 77.015625 L 162.320312 74.867188 L 161.746094 66.617188 C 163.410156 65.601562 164.957031 64.351562 166.320312 62.910156 L 174.25 65.160156 L 177.855469 58.503906 L 171.652344 53.078125 C 172.105469 51.128906 172.316406 49.175781 172.242188 47.226562 Z M 157.527344 51.78125 C 155.386719 55.742188 150.417969 57.21875 146.460938 55.0625 C 142.503906 52.921875 141.03125 47.960938 143.183594 44 C 145.324219 40.039062 150.277344 38.566406 154.234375 40.703125 C 158.195312 42.859375 159.667969 47.820312 157.527344 51.78125 Z M 157.527344 51.78125 "/><g clip-rule="nonzero" clip-path="url(#ac3ae552c6)"><path style=" stroke:none;fill-rule:nonzero;fill:#7ccedc;fill-opacity:1;" d="M 214.914062 36.589844 L 217.730469 31.390625 L 212.882812 27.148438 C 213.242188 25.636719 213.40625 24.113281 213.347656 22.59375 L 218.976562 19.445312 L 217.292969 13.765625 L 210.859375 14.203125 C 210.070312 12.910156 209.097656 11.707031 207.972656 10.636719 L 209.730469 4.4375 L 204.523438 1.617188 L 200.296875 6.472656 C 198.789062 6.113281 197.265625 5.949219 195.746094 6.007812 L 192.601562 0.375 L 186.925781 2.0625 L 187.363281 8.5 C 186.058594 9.28125 184.871094 10.25 183.804688 11.375 L 177.609375 9.625 L 174.792969 14.828125 L 179.644531 19.058594 C 179.285156 20.566406 179.128906 22.109375 179.175781 23.621094 L 173.546875 26.769531 L 175.234375 32.453125 L 181.664062 32.015625 C 182.449219 33.320312 183.414062 34.507812 184.539062 35.578125 L 182.78125 41.773438 L 187.988281 44.597656 L 192.214844 39.738281 C 193.722656 40.097656 195.261719 40.257812 196.777344 40.210938 L 199.921875 45.84375 L 205.597656 44.15625 L 205.160156 37.71875 C 206.453125 36.929688 207.65625 35.957031 208.726562 34.832031 Z M 193.222656 28.710938 C 190.136719 27.039062 188.988281 23.164062 190.664062 20.066406 C 192.335938 16.980469 196.207031 15.828125 199.292969 17.503906 C 202.386719 19.179688 203.535156 23.054688 201.863281 26.140625 C 200.1875 29.238281 196.316406 30.390625 193.222656 28.710938 Z M 193.222656 28.710938 "/></g><path style=" stroke:none;fill-rule:nonzero;fill:#f37c5a;fill-opacity:1;" d="M 245.117188 64.792969 L 318.574219 64.792969 L 318.574219 111.386719 L 245.117188 111.386719 Z M 245.117188 64.792969 "/><path style=" stroke:none;fill-rule:nonzero;fill:#ffffff;fill-opacity:1;" d="M 274.410156 77.5 L 274.410156 98.675781 L 290.238281 88.089844 Z M 274.410156 77.5 "/><path style=" stroke:none;fill-rule:nonzero;fill:#dad9d8;fill-opacity:1;" d="M 87.691406 239.09375 L 132.53125 239.09375 L 132.53125 269.667969 L 87.691406 269.667969 Z M 87.691406 239.09375 "/><path style=" stroke:none;fill-rule:nonzero;fill:#464e58;fill-opacity:1;" d="M 207.964844 104.722656 L 207.964844 221.429688 L 12.253906 221.429688 L 12.253906 104.722656 C 12.253906 100.457031 15.710938 96.996094 19.972656 96.996094 L 200.25 96.996094 C 204.507812 96.996094 207.964844 100.457031 207.964844 104.722656 Z M 207.964844 104.722656 "/><path style=" stroke:none;fill-rule:nonzero;fill:#f2f2f2;fill-opacity:1;" d="M 207.964844 221.429688 L 207.964844 243.4375 C 207.964844 247.699219 204.507812 251.160156 200.25 251.160156 L 19.972656 251.160156 C 15.710938 251.160156 12.253906 247.699219 12.253906 243.4375 L 12.253906 221.429688 Z M 207.964844 221.429688 "/><path style=" stroke:none;fill-rule:nonzero;fill:#464e58;fill-opacity:1;" d="M 110.109375 231.253906 C 107.328125 231.253906 105.066406 233.503906 105.066406 236.285156 C 105.066406 239.085938 107.332031 241.335938 110.109375 241.335938 C 112.890625 241.335938 115.152344 239.085938 115.152344 236.285156 C 115.152344 233.503906 112.890625 231.253906 110.109375 231.253906 Z M 110.109375 231.253906 "/><path style=" stroke:none;fill-rule:nonzero;fill:#f2f2f2;fill-opacity:1;" d="M 67.210938 272.753906 L 153.007812 272.753906 C 153.007812 266.851562 148.226562 262.066406 142.332031 262.066406 L 77.890625 262.066406 C 71.992188 262.066406 67.210938 266.851562 67.210938 272.753906 Z M 67.210938 272.753906 "/><path style=" stroke:none;fill-rule:nonzero;fill:#f2f2f2;fill-opacity:1;" d="M 22.277344 107.03125 L 197.941406 107.03125 L 197.941406 211.398438 L 22.277344 211.398438 Z M 22.277344 107.03125 "/><path style=" stroke:none;fill-rule:nonzero;fill:#25313b;fill-opacity:1;" d="M 110.222656 181.738281 C 95.257812 181.738281 83.113281 169.585938 83.113281 154.597656 C 83.113281 139.621094 95.257812 127.464844 110.222656 127.464844 C 125.199219 127.464844 137.339844 139.621094 137.339844 154.597656 C 137.339844 169.585938 125.199219 181.738281 110.222656 181.738281 Z M 110.222656 181.738281 "/><path style=" stroke:none;fill-rule:nonzero;fill:#f37c5a;fill-opacity:1;" d="M 98.902344 135.757812 L 110.640625 135.757812 L 110.640625 138.871094 L 98.902344 138.871094 Z M 98.902344 135.757812 "/><path style=" stroke:none;fill-rule:nonzero;fill:#f37c5a;fill-opacity:1;" d="M 121.097656 156.238281 L 130.097656 156.238281 L 130.097656 159.339844 L 121.097656 159.339844 Z M 121.097656 156.238281 "/><path style=" stroke:none;fill-rule:nonzero;fill:#7ccedc;fill-opacity:1;" d="M 81.742188 135.757812 L 96.101562 135.757812 L 96.101562 138.859375 L 81.742188 138.859375 Z M 81.742188 135.757812 "/><path style=" stroke:none;fill-rule:nonzero;fill:#7ccedc;fill-opacity:1;" d="M 90.363281 156.238281 L 102.988281 156.238281 L 102.988281 159.339844 L 90.363281 159.339844 Z M 90.363281 156.238281 "/><path style=" stroke:none;fill-rule:nonzero;fill:#ffffff;fill-opacity:1;" d="M 105.632812 156.238281 L 117.933594 156.238281 L 117.933594 159.339844 L 105.632812 159.339844 Z M 105.632812 156.238281 "/><path style=" stroke:none;fill-rule:nonzero;fill:#ffffff;fill-opacity:1;" d="M 91.628906 166.210938 L 96.871094 166.210938 L 96.871094 169.3125 L 91.628906 169.3125 Z M 91.628906 166.210938 "/><path style=" stroke:none;fill-rule:nonzero;fill:#f37c5a;fill-opacity:1;" d="M 107.074219 171.402344 L 121.847656 171.402344 L 121.847656 174.515625 L 107.074219 174.515625 Z M 107.074219 171.402344 "/><path style=" stroke:none;fill-rule:nonzero;fill:#f37c5a;fill-opacity:1;" d="M 92.746094 145.996094 L 101.347656 145.996094 L 101.347656 149.097656 L 92.746094 149.097656 Z M 92.746094 145.996094 "/><path style=" stroke:none;fill-rule:nonzero;fill:#ffffff;fill-opacity:1;" d="M 81.742188 166.210938 L 89.226562 166.210938 L 89.226562 169.3125 L 81.742188 169.3125 Z M 81.742188 166.210938 "/><path style=" stroke:none;fill-rule:nonzero;fill:#ffffff;fill-opacity:1;" d="M 81.742188 156.238281 L 87.78125 156.238281 L 87.78125 159.339844 L 81.742188 159.339844 Z M 81.742188 156.238281 "/><path style=" stroke:none;fill-rule:nonzero;fill:#ffffff;fill-opacity:1;" d="M 85.394531 171.402344 L 104.492188 171.402344 L 104.492188 174.515625 L 85.394531 174.515625 Z M 85.394531 171.402344 "/><path style=" stroke:none;fill-rule:nonzero;fill:#f37c5a;fill-opacity:1;" d="M 80.824219 161.347656 L 107.277344 161.347656 L 107.277344 164.460938 L 80.824219 164.460938 Z M 80.824219 161.347656 "/><path style=" stroke:none;fill-rule:nonzero;fill:#7ccedc;fill-opacity:1;" d="M 99.097656 166.210938 L 111.457031 166.210938 L 111.457031 169.3125 L 99.097656 169.3125 Z M 99.097656 166.210938 "/><path style=" stroke:none;fill-rule:nonzero;fill:#ffffff;fill-opacity:1;" d="M 81.742188 145.996094 L 89.882812 145.996094 L 89.882812 149.097656 L 81.742188 149.097656 Z M 81.742188 145.996094 "/><path style=" stroke:none;fill-rule:nonzero;fill:#ffffff;fill-opacity:1;" d="M 113.230469 135.753906 L 125.558594 135.753906 L 125.558594 138.871094 L 113.230469 138.871094 Z M 113.230469 135.753906 "/><path style=" stroke:none;fill-rule:nonzero;fill:#dad9d8;fill-opacity:1;" d="M 112.269531 115.890625 L 121.246094 115.890625 L 121.246094 117.78125 L 112.269531 117.78125 Z M 112.269531 115.890625 "/><path style=" stroke:none;fill-rule:nonzero;fill:#464e58;fill-opacity:1;" d="M 91.105469 115.890625 L 96.503906 115.890625 L 96.503906 117.78125 L 91.105469 117.78125 Z M 91.105469 115.890625 "/><path style=" stroke:none;fill-rule:nonzero;fill:#dad9d8;fill-opacity:1;" d="M 79.515625 115.890625 L 89.679688 115.890625 L 89.679688 117.78125 L 79.515625 117.78125 Z M 79.515625 115.890625 "/><path style=" stroke:none;fill-rule:nonzero;fill:#dad9d8;fill-opacity:1;" d="M 70.890625 115.890625 L 78.089844 115.890625 L 78.089844 117.78125 L 70.890625 117.78125 Z M 70.890625 115.890625 "/><path style=" stroke:none;fill-rule:nonzero;fill:#464e58;fill-opacity:1;" d="M 59.648438 115.890625 L 65.441406 115.890625 L 65.441406 117.78125 L 59.648438 117.78125 Z M 59.648438 115.890625 "/><path style=" stroke:none;fill-rule:nonzero;fill:#dad9d8;fill-opacity:1;" d="M 48.4375 115.890625 L 58.222656 115.890625 L 58.222656 117.78125 L 48.4375 117.78125 Z M 48.4375 115.890625 "/><path style=" stroke:none;fill-rule:nonzero;fill:#7ccedc;fill-opacity:1;" d="M 97.933594 115.890625 L 110.84375 115.890625 L 110.84375 117.785156 L 97.933594 117.785156 Z M 97.933594 115.890625 "/><path style=" stroke:none;fill-rule:nonzero;fill:#f37c5a;fill-opacity:1;" d="M 66.871094 115.890625 L 69.460938 115.890625 L 69.460938 117.78125 L 66.871094 117.78125 Z M 66.871094 115.890625 "/><path style=" stroke:none;fill-rule:nonzero;fill:#dad9d8;fill-opacity:1;" d="M 31.941406 115.894531 L 47.015625 115.894531 L 47.015625 117.78125 L 31.941406 117.78125 Z M 31.941406 115.894531 "/><path style=" stroke:none;fill-rule:nonzero;fill:#dad9d8;fill-opacity:1;" d="M 31.941406 121.011719 L 37.335938 121.011719 L 37.335938 122.902344 L 31.941406 122.902344 Z M 31.941406 121.011719 "/><path style=" stroke:none;fill-rule:nonzero;fill:#464e58;fill-opacity:1;" d="M 38.855469 121.015625 L 55.832031 121.015625 L 55.832031 122.898438 L 38.855469 122.898438 Z M 38.855469 121.015625 "/><path style=" stroke:none;fill-rule:nonzero;fill:#7ccedc;fill-opacity:1;" d="M 57.1875 121.015625 L 61.746094 121.015625 L 61.746094 122.898438 L 57.1875 122.898438 Z M 57.1875 121.015625 "/><path style=" stroke:none;fill-rule:nonzero;fill:#dad9d8;fill-opacity:1;" d="M 63.175781 121.011719 L 80.003906 121.011719 L 80.003906 122.902344 L 63.175781 122.902344 Z M 63.175781 121.011719 "/><path style=" stroke:none;fill-rule:nonzero;fill:#464e58;fill-opacity:1;" d="M 81.429688 121.011719 L 88.253906 121.011719 L 88.253906 122.902344 L 81.429688 122.902344 Z M 81.429688 121.011719 "/><path style=" stroke:none;fill-rule:nonzero;fill:#dad9d8;fill-opacity:1;" d="M 89.679688 121.011719 L 95.074219 121.011719 L 95.074219 122.902344 L 89.679688 122.902344 Z M 89.679688 121.011719 "/><path style=" stroke:none;fill-rule:nonzero;fill:#dad9d8;fill-opacity:1;" d="M 70.886719 126.128906 L 89.675781 126.128906 L 89.675781 128.015625 L 70.886719 128.015625 Z M 70.886719 126.128906 "/><path style=" stroke:none;fill-rule:nonzero;fill:#dad9d8;fill-opacity:1;" d="M 53.859375 126.125 L 69.464844 126.125 L 69.464844 128.019531 L 53.859375 128.019531 Z M 53.859375 126.125 "/><path style=" stroke:none;fill-rule:nonzero;fill:#f37c5a;fill-opacity:1;" d="M 44.3125 126.128906 L 52.421875 126.128906 L 52.421875 128.015625 L 44.3125 128.015625 Z M 44.3125 126.128906 "/><path style=" stroke:none;fill-rule:nonzero;fill:#dad9d8;fill-opacity:1;" d="M 31.941406 126.128906 L 42.886719 126.128906 L 42.886719 128.019531 L 31.941406 128.019531 Z M 31.941406 126.128906 "/><path style=" stroke:none;fill-rule:nonzero;fill:#dad9d8;fill-opacity:1;" d="M 31.941406 131.253906 L 47.21875 131.253906 L 47.21875 133.132812 L 31.941406 133.132812 Z M 31.941406 131.253906 "/><path style=" stroke:none;fill-rule:nonzero;fill:#464e58;fill-opacity:1;" d="M 49.132812 131.253906 L 55.261719 131.253906 L 55.261719 133.132812 L 49.132812 133.132812 Z M 49.132812 131.253906 "/><path style=" stroke:none;fill-rule:nonzero;fill:#dad9d8;fill-opacity:1;" d="M 56.691406 131.25 L 73.917969 131.25 L 73.917969 133.144531 L 56.691406 133.144531 Z M 56.691406 131.25 "/><path style=" stroke:none;fill-rule:nonzero;fill:#464e58;fill-opacity:1;" d="M 75.332031 131.25 L 83.496094 131.25 L 83.496094 133.144531 L 75.332031 133.144531 Z M 75.332031 131.25 "/><path style=" stroke:none;fill-rule:nonzero;fill:#f37c5a;fill-opacity:1;" d="M 60.804688 136.363281 L 69.050781 136.363281 L 69.050781 138.257812 L 60.804688 138.257812 Z M 60.804688 136.363281 "/><path style=" stroke:none;fill-rule:nonzero;fill:#dad9d8;fill-opacity:1;" d="M 70.792969 136.363281 L 78.085938 136.363281 L 78.085938 138.257812 L 70.792969 138.257812 Z M 70.792969 136.363281 "/><path style=" stroke:none;fill-rule:nonzero;fill:#dad9d8;fill-opacity:1;" d="M 44.3125 136.363281 L 59.386719 136.363281 L 59.386719 138.257812 L 44.3125 138.257812 Z M 44.3125 136.363281 "/><path style=" stroke:none;fill-rule:nonzero;fill:#464e58;fill-opacity:1;" d="M 31.941406 136.367188 L 42.886719 136.367188 L 42.886719 138.257812 L 31.941406 138.257812 Z M 31.941406 136.367188 "/><path style=" stroke:none;fill-rule:nonzero;fill:#464e58;fill-opacity:1;" d="M 31.941406 141.480469 L 37.691406 141.480469 L 37.691406 143.382812 L 31.941406 143.382812 Z M 31.941406 141.480469 "/><path style=" stroke:none;fill-rule:nonzero;fill:#dad9d8;fill-opacity:1;" d="M 39.296875 141.480469 L 50.601562 141.480469 L 50.601562 143.382812 L 39.296875 143.382812 Z M 39.296875 141.480469 "/><path style=" stroke:none;fill-rule:nonzero;fill:#7ccedc;fill-opacity:1;" d="M 52.539062 141.480469 L 63.503906 141.480469 L 63.503906 143.382812 L 52.539062 143.382812 Z M 52.539062 141.480469 "/><path style=" stroke:none;fill-rule:nonzero;fill:#f37c5a;fill-opacity:1;" d="M 66.863281 146.597656 L 78.085938 146.597656 L 78.085938 148.492188 L 66.863281 148.492188 Z M 66.863281 146.597656 "/><path style=" stroke:none;fill-rule:nonzero;fill:#dad9d8;fill-opacity:1;" d="M 56.6875 146.605469 L 65.441406 146.605469 L 65.441406 148.496094 L 56.6875 148.496094 Z M 56.6875 146.605469 "/><path style=" stroke:none;fill-rule:nonzero;fill:#f37c5a;fill-opacity:1;" d="M 31.9375 146.597656 L 45.339844 146.597656 L 45.339844 148.492188 L 31.9375 148.492188 Z M 31.9375 146.597656 "/><path style=" stroke:none;fill-rule:nonzero;fill:#464e58;fill-opacity:1;" d="M 47.269531 146.597656 L 55.261719 146.597656 L 55.261719 148.492188 L 47.269531 148.492188 Z M 47.269531 146.597656 "/><path style=" stroke:none;fill-rule:nonzero;fill:#dad9d8;fill-opacity:1;" d="M 31.941406 151.726562 L 49.972656 151.726562 L 49.972656 153.617188 L 31.941406 153.617188 Z M 31.941406 151.726562 "/><path style=" stroke:none;fill-rule:nonzero;fill:#464e58;fill-opacity:1;" d="M 51.398438 151.722656 L 73.917969 151.722656 L 73.917969 153.617188 L 51.398438 153.617188 Z M 51.398438 151.722656 "/><path style=" stroke:none;fill-rule:nonzero;fill:#dad9d8;fill-opacity:1;" d="M 62.65625 156.847656 L 78.085938 156.847656 L 78.085938 158.726562 L 62.65625 158.726562 Z M 62.65625 156.847656 "/><path style=" stroke:none;fill-rule:nonzero;fill:#dad9d8;fill-opacity:1;" d="M 48.4375 156.839844 L 61.226562 156.839844 L 61.226562 158.730469 L 48.4375 158.730469 Z M 48.4375 156.839844 "/><path style=" stroke:none;fill-rule:nonzero;fill:#464e58;fill-opacity:1;" d="M 37.203125 156.839844 L 47.011719 156.839844 L 47.011719 158.730469 L 37.203125 158.730469 Z M 37.203125 156.839844 "/><path style=" stroke:none;fill-rule:nonzero;fill:#dad9d8;fill-opacity:1;" d="M 31.941406 156.839844 L 35.777344 156.839844 L 35.777344 158.730469 L 31.941406 158.730469 Z M 31.941406 156.839844 "/><path style=" stroke:none;fill-rule:nonzero;fill:#f37c5a;fill-opacity:1;" d="M 31.941406 161.960938 L 39.613281 161.960938 L 39.613281 163.851562 L 31.941406 163.851562 Z M 31.941406 161.960938 "/><path style=" stroke:none;fill-rule:nonzero;fill:#dad9d8;fill-opacity:1;" d="M 41.222656 161.960938 L 57.023438 161.960938 L 57.023438 163.847656 L 41.222656 163.847656 Z M 41.222656 161.960938 "/><path style=" stroke:none;fill-rule:nonzero;fill:#464e58;fill-opacity:1;" d="M 58.453125 161.960938 L 73.910156 161.960938 L 73.910156 163.851562 L 58.453125 163.851562 Z M 58.453125 161.960938 "/><path style=" stroke:none;fill-rule:nonzero;fill:#f37c5a;fill-opacity:1;" d="M 75.339844 161.960938 L 80.003906 161.960938 L 80.003906 163.851562 L 75.339844 163.851562 Z M 75.339844 161.960938 "/><path style=" stroke:none;fill-rule:nonzero;fill:#f37c5a;fill-opacity:1;" d="M 79.742188 172.015625 L 84.390625 172.015625 L 84.390625 173.910156 L 79.742188 173.910156 Z M 79.742188 172.015625 "/><path style=" stroke:none;fill-rule:nonzero;fill:#464e58;fill-opacity:1;" d="M 59.648438 172.015625 L 64.953125 172.015625 L 64.953125 173.910156 L 59.648438 173.910156 Z M 59.648438 172.015625 "/><path style=" stroke:none;fill-rule:nonzero;fill:#dad9d8;fill-opacity:1;" d="M 66.457031 172.015625 L 78.085938 172.015625 L 78.085938 173.910156 L 66.457031 173.910156 Z M 66.457031 172.015625 "/><path style=" stroke:none;fill-rule:nonzero;fill:#dad9d8;fill-opacity:1;" d="M 48.4375 172.019531 L 58.222656 172.019531 L 58.222656 173.910156 L 48.4375 173.910156 Z M 48.4375 172.019531 "/><path style=" stroke:none;fill-rule:nonzero;fill:#7ccedc;fill-opacity:1;" d="M 31.941406 172.019531 L 47.015625 172.019531 L 47.015625 173.90625 L 31.941406 173.90625 Z M 31.941406 172.019531 "/><path style=" stroke:none;fill-rule:nonzero;fill:#f37c5a;fill-opacity:1;" d="M 31.9375 177.140625 L 39.210938 177.140625 L 39.210938 179.019531 L 31.9375 179.019531 Z M 31.9375 177.140625 "/><path style=" stroke:none;fill-rule:nonzero;fill:#464e58;fill-opacity:1;" d="M 41.03125 177.140625 L 52.609375 177.140625 L 52.609375 179.019531 L 41.03125 179.019531 Z M 41.03125 177.140625 "/><path style=" stroke:none;fill-rule:nonzero;fill:#dad9d8;fill-opacity:1;" d="M 54.054688 177.140625 L 68.253906 177.140625 L 68.253906 179.019531 L 54.054688 179.019531 Z M 54.054688 177.140625 "/><path style=" stroke:none;fill-rule:nonzero;fill:#464e58;fill-opacity:1;" d="M 69.699219 177.136719 L 88.253906 177.136719 L 88.253906 179.027344 L 69.699219 179.027344 Z M 69.699219 177.136719 "/><path style=" stroke:none;fill-rule:nonzero;fill:#dad9d8;fill-opacity:1;" d="M 77.367188 182.253906 L 93.25 182.253906 L 93.25 184.144531 L 77.367188 184.144531 Z M 77.367188 182.253906 "/><path style=" stroke:none;fill-rule:nonzero;fill:#dad9d8;fill-opacity:1;" d="M 55.550781 182.25 L 65.265625 182.25 L 65.265625 184.144531 L 55.550781 184.144531 Z M 55.550781 182.25 "/><path style=" stroke:none;fill-rule:nonzero;fill:#464e58;fill-opacity:1;" d="M 67.097656 182.25 L 75.933594 182.25 L 75.933594 184.144531 L 67.097656 184.144531 Z M 67.097656 182.25 "/><path style=" stroke:none;fill-rule:nonzero;fill:#f37c5a;fill-opacity:1;" d="M 44.3125 182.253906 L 54.113281 182.253906 L 54.113281 184.144531 L 44.3125 184.144531 Z M 44.3125 182.253906 "/><path style=" stroke:none;fill-rule:nonzero;fill:#dad9d8;fill-opacity:1;" d="M 31.941406 182.253906 L 42.886719 182.253906 L 42.886719 184.144531 L 31.941406 184.144531 Z M 31.941406 182.253906 "/><path style=" stroke:none;fill-rule:nonzero;fill:#464e58;fill-opacity:1;" d="M 31.9375 187.375 L 40.273438 187.375 L 40.273438 189.269531 L 31.9375 189.269531 Z M 31.9375 187.375 "/><path style=" stroke:none;fill-rule:nonzero;fill:#dad9d8;fill-opacity:1;" d="M 41.914062 187.375 L 49.566406 187.375 L 49.566406 189.269531 L 41.914062 189.269531 Z M 41.914062 187.375 "/><path style=" stroke:none;fill-rule:nonzero;fill:#dad9d8;fill-opacity:1;" d="M 50.992188 187.375 L 63.507812 187.375 L 63.507812 189.265625 L 50.992188 189.265625 Z M 50.992188 187.375 "/><path style=" stroke:none;fill-rule:nonzero;fill:#dad9d8;fill-opacity:1;" d="M 64.929688 187.375 L 80.71875 187.375 L 80.71875 189.269531 L 64.929688 189.269531 Z M 64.929688 187.375 "/><path style=" stroke:none;fill-rule:nonzero;fill:#7ccedc;fill-opacity:1;" d="M 82.140625 187.375 L 95.078125 187.375 L 95.078125 189.269531 L 82.140625 189.269531 Z M 82.140625 187.375 "/><path style=" stroke:none;fill-rule:nonzero;fill:#f37c5a;fill-opacity:1;" d="M 123.839844 192.492188 L 135.164062 192.492188 L 135.164062 194.382812 L 123.839844 194.382812 Z M 123.839844 192.492188 "/><path style=" stroke:none;fill-rule:nonzero;fill:#dad9d8;fill-opacity:1;" d="M 116.757812 192.488281 L 122.410156 192.488281 L 122.410156 194.382812 L 116.757812 194.382812 Z M 116.757812 192.488281 "/><path style=" stroke:none;fill-rule:nonzero;fill:#dad9d8;fill-opacity:1;" d="M 105.097656 192.488281 L 115.34375 192.488281 L 115.34375 194.382812 L 105.097656 194.382812 Z M 105.097656 192.488281 "/><path style=" stroke:none;fill-rule:nonzero;fill:#dad9d8;fill-opacity:1;" d="M 78.339844 192.488281 L 89.179688 192.488281 L 89.179688 194.375 L 78.339844 194.375 Z M 78.339844 192.488281 "/><path style=" stroke:none;fill-rule:nonzero;fill:#464e58;fill-opacity:1;" d="M 90.800781 192.488281 L 103.671875 192.488281 L 103.671875 194.375 L 90.800781 194.375 Z M 90.800781 192.488281 "/><path style=" stroke:none;fill-rule:nonzero;fill:#dad9d8;fill-opacity:1;" d="M 68.445312 192.492188 L 76.910156 192.492188 L 76.910156 194.382812 L 68.445312 194.382812 Z M 68.445312 192.492188 "/><path style=" stroke:none;fill-rule:nonzero;fill:#7ccedc;fill-opacity:1;" d="M 54.824219 192.488281 L 67.015625 192.488281 L 67.015625 194.375 L 54.824219 194.375 Z M 54.824219 192.488281 "/><path style=" stroke:none;fill-rule:nonzero;fill:#464e58;fill-opacity:1;" d="M 39.476562 192.492188 L 44.753906 192.492188 L 44.753906 194.382812 L 39.476562 194.382812 Z M 39.476562 192.492188 "/><path style=" stroke:none;fill-rule:nonzero;fill:#dad9d8;fill-opacity:1;" d="M 46.203125 192.492188 L 53.402344 192.492188 L 53.402344 194.382812 L 46.203125 194.382812 Z M 46.203125 192.492188 "/><path style=" stroke:none;fill-rule:nonzero;fill:#f37c5a;fill-opacity:1;" d="M 31.9375 192.488281 L 38.050781 192.488281 L 38.050781 194.382812 L 31.9375 194.382812 Z M 31.9375 192.488281 "/><path style=" stroke:none;fill-rule:nonzero;fill:#dad9d8;fill-opacity:1;" d="M 69.136719 166.820312 L 73.777344 166.820312 L 73.777344 168.710938 L 69.136719 168.710938 Z M 69.136719 166.820312 "/><path style=" stroke:none;fill-rule:nonzero;fill:#f37c5a;fill-opacity:1;" d="M 53.855469 166.820312 L 67.710938 166.820312 L 67.710938 168.710938 L 53.855469 168.710938 Z M 53.855469 166.820312 "/><path style=" stroke:none;fill-rule:nonzero;fill:#dad9d8;fill-opacity:1;" d="M 44.3125 166.820312 L 52.421875 166.820312 L 52.421875 168.707031 L 44.3125 168.707031 Z M 44.3125 166.820312 "/><path style=" stroke:none;fill-rule:nonzero;fill:#464e58;fill-opacity:1;" d="M 31.941406 166.820312 L 42.886719 166.820312 L 42.886719 168.710938 L 31.941406 168.710938 Z M 31.941406 166.820312 "/><path style=" stroke:none;fill-rule:nonzero;fill:#f37c5a;fill-opacity:1;" d="M 82.148438 197.601562 L 96.332031 197.601562 L 96.332031 199.488281 L 82.148438 199.488281 Z M 82.148438 197.601562 "/><path style=" stroke:none;fill-rule:nonzero;fill:#dad9d8;fill-opacity:1;" d="M 64.628906 197.605469 L 80.71875 197.605469 L 80.71875 199.496094 L 64.628906 199.496094 Z M 64.628906 197.605469 "/><path style=" stroke:none;fill-rule:nonzero;fill:#f37c5a;fill-opacity:1;" d="M 51.703125 197.601562 L 63.199219 197.601562 L 63.199219 199.488281 L 51.703125 199.488281 Z M 51.703125 197.601562 "/><path style=" stroke:none;fill-rule:nonzero;fill:#464e58;fill-opacity:1;" d="M 41.351562 197.605469 L 31.9375 197.597656 L 31.9375 199.492188 L 41.351562 199.492188 Z M 41.351562 197.605469 "/><path style=" stroke:none;fill-rule:nonzero;fill:#dad9d8;fill-opacity:1;" d="M 43.011719 197.605469 L 50.28125 197.605469 L 50.28125 199.492188 L 43.011719 199.492188 Z M 43.011719 197.605469 "/><path style=" stroke:none;fill-rule:nonzero;fill:#464e58;fill-opacity:1;" d="M 60.097656 202.722656 L 72.3125 202.722656 L 72.3125 204.601562 L 60.097656 204.601562 Z M 60.097656 202.722656 "/><path style=" stroke:none;fill-rule:nonzero;fill:#dad9d8;fill-opacity:1;" d="M 73.925781 202.722656 L 84.414062 202.722656 L 84.414062 204.601562 L 73.925781 204.601562 Z M 73.925781 202.722656 "/><path style=" stroke:none;fill-rule:nonzero;fill:#dad9d8;fill-opacity:1;" d="M 31.9375 202.707031 L 36.84375 202.707031 L 36.84375 204.601562 L 31.9375 204.601562 Z M 31.9375 202.707031 "/><path style=" stroke:none;fill-rule:nonzero;fill:#7ccedc;fill-opacity:1;" d="M 38.714844 202.722656 L 58.671875 202.722656 L 58.671875 204.601562 L 38.714844 204.601562 Z M 38.714844 202.722656 "/><path style=" stroke:none;fill-rule:nonzero;fill:#25313b;fill-opacity:1;" d="M 127.824219 181.195312 L 136.792969 172.214844 L 146.359375 181.789062 L 137.390625 190.765625 Z M 127.824219 181.195312 "/><path style=" stroke:none;fill-rule:nonzero;fill:#464e58;fill-opacity:1;" d="M 110.222656 119.464844 C 90.839844 119.464844 75.121094 135.199219 75.121094 154.601562 C 75.121094 174.007812 90.84375 189.746094 110.222656 189.746094 C 129.613281 189.746094 145.339844 174.007812 145.339844 154.601562 C 145.339844 135.199219 129.613281 119.464844 110.222656 119.464844 Z M 110.222656 181.738281 C 95.257812 181.738281 83.113281 169.585938 83.113281 154.597656 C 83.113281 139.621094 95.257812 127.464844 110.222656 127.464844 C 125.199219 127.464844 137.339844 139.621094 137.339844 154.597656 C 137.339844 169.585938 125.199219 181.738281 110.222656 181.738281 Z M 110.222656 181.738281 "/><path style=" stroke:none;fill-rule:nonzero;fill:#fdda7f;fill-opacity:1;" d="M 132.320312 190.710938 L 146.304688 176.714844 L 175.714844 206.148438 L 161.730469 220.144531 Z M 132.320312 190.710938 "/><path style=" stroke:none;fill-rule:nonzero;fill:#7ccedc;fill-opacity:1;" d="M 47.695312 207.78125 C 47.695312 208.484375 47.660156 209.179688 47.59375 209.878906 C 47.523438 210.574219 47.421875 211.265625 47.285156 211.953125 C 47.148438 212.640625 46.980469 213.316406 46.777344 213.988281 C 46.574219 214.65625 46.335938 215.316406 46.070312 215.960938 C 45.800781 216.609375 45.503906 217.242188 45.171875 217.859375 C 44.84375 218.476562 44.484375 219.074219 44.097656 219.65625 C 43.707031 220.238281 43.292969 220.800781 42.847656 221.339844 C 42.402344 221.882812 41.933594 222.402344 41.441406 222.894531 C 40.945312 223.390625 40.429688 223.859375 39.886719 224.304688 C 39.347656 224.75 38.785156 225.164062 38.203125 225.554688 C 37.621094 225.941406 37.023438 226.300781 36.40625 226.632812 C 35.789062 226.960938 35.160156 227.261719 34.511719 227.527344 C 33.867188 227.796875 33.207031 228.03125 32.539062 228.234375 C 31.871094 228.4375 31.191406 228.609375 30.507812 228.746094 C 29.820312 228.882812 29.128906 228.984375 28.433594 229.054688 C 27.738281 229.121094 27.039062 229.15625 26.339844 229.15625 C 25.640625 229.15625 24.941406 229.121094 24.246094 229.054688 C 23.550781 228.984375 22.859375 228.882812 22.175781 228.746094 C 21.488281 228.609375 20.8125 228.4375 20.140625 228.234375 C 19.472656 228.03125 18.8125 227.796875 18.167969 227.527344 C 17.523438 227.261719 16.890625 226.960938 16.273438 226.632812 C 15.65625 226.300781 15.058594 225.941406 14.476562 225.554688 C 13.894531 225.164062 13.332031 224.75 12.792969 224.304688 C 12.253906 223.859375 11.734375 223.390625 11.242188 222.894531 C 10.746094 222.402344 10.277344 221.882812 9.832031 221.339844 C 9.390625 220.800781 8.972656 220.238281 8.585938 219.65625 C 8.195312 219.074219 7.835938 218.476562 7.507812 217.859375 C 7.175781 217.242188 6.878906 216.609375 6.609375 215.960938 C 6.34375 215.316406 6.109375 214.65625 5.90625 213.988281 C 5.703125 213.316406 5.53125 212.640625 5.394531 211.953125 C 5.257812 211.265625 5.15625 210.574219 5.089844 209.878906 C 5.019531 209.179688 4.984375 208.484375 4.984375 207.78125 C 4.984375 207.082031 5.019531 206.382812 5.089844 205.6875 C 5.15625 204.992188 5.257812 204.300781 5.394531 203.613281 C 5.53125 202.925781 5.703125 202.246094 5.90625 201.578125 C 6.109375 200.910156 6.34375 200.25 6.609375 199.601562 C 6.878906 198.957031 7.175781 198.324219 7.507812 197.707031 C 7.835938 197.089844 8.195312 196.488281 8.585938 195.90625 C 8.972656 195.324219 9.390625 194.765625 9.832031 194.222656 C 10.277344 193.683594 10.746094 193.164062 11.242188 192.667969 C 11.734375 192.175781 12.253906 191.703125 12.792969 191.261719 C 13.332031 190.816406 13.894531 190.398438 14.476562 190.011719 C 15.058594 189.621094 15.65625 189.261719 16.273438 188.933594 C 16.890625 188.601562 17.523438 188.304688 18.167969 188.035156 C 18.8125 187.769531 19.472656 187.53125 20.140625 187.328125 C 20.8125 187.125 21.488281 186.957031 22.175781 186.820312 C 22.859375 186.683594 23.550781 186.582031 24.246094 186.511719 C 24.941406 186.445312 25.640625 186.410156 26.339844 186.410156 C 27.039062 186.410156 27.738281 186.445312 28.433594 186.511719 C 29.128906 186.582031 29.820312 186.683594 30.507812 186.820312 C 31.191406 186.957031 31.871094 187.125 32.539062 187.328125 C 33.207031 187.53125 33.867188 187.769531 34.511719 188.035156 C 35.160156 188.304688 35.789062 188.601562 36.40625 188.933594 C 37.023438 189.261719 37.621094 189.621094 38.203125 190.011719 C 38.785156 190.398438 39.347656 190.816406 39.886719 191.261719 C 40.429688 191.703125 40.945312 192.175781 41.441406 192.667969 C 41.933594 193.164062 42.402344 193.683594 42.847656 194.222656 C 43.292969 194.765625 43.707031 195.324219 44.097656 195.90625 C 44.484375 196.488281 44.84375 197.089844 45.171875 197.707031 C 45.503906 198.324219 45.800781 198.957031 46.070312 199.601562 C 46.335938 200.25 46.574219 200.910156 46.777344 201.578125 C 46.980469 202.246094 47.148438 202.925781 47.285156 203.613281 C 47.421875 204.300781 47.523438 204.992188 47.59375 205.6875 C 47.660156 206.382812 47.695312 207.082031 47.695312 207.78125 Z M 47.695312 207.78125 "/><path style=" stroke:none;fill-rule:nonzero;fill:#ffffff;fill-opacity:1;" d="M 18.832031 203.476562 C 19.558594 204.082031 19.921875 205.019531 19.921875 206.28125 C 19.921875 207.546875 19.550781 208.472656 18.8125 209.058594 C 18.070312 209.644531 16.933594 209.9375 15.402344 209.9375 L 13.554688 209.9375 L 13.554688 212.996094 L 11.796875 212.996094 L 11.796875 202.566406 L 15.375 202.566406 C 16.953125 202.566406 18.105469 202.871094 18.832031 203.476562 Z M 17.589844 207.78125 C 17.941406 207.410156 18.117188 206.863281 18.117188 206.140625 C 18.117188 205.417969 17.894531 204.910156 17.445312 204.613281 C 17 204.3125 16.296875 204.164062 15.34375 204.164062 L 13.554688 204.164062 L 13.554688 208.34375 L 15.597656 208.34375 C 16.570312 208.34375 17.234375 208.15625 17.589844 207.78125 Z M 17.589844 207.78125 "/><path style=" stroke:none;fill-rule:nonzero;fill:#ffffff;fill-opacity:1;" d="M 21.992188 213 L 21.992188 202.566406 L 23.753906 202.566406 L 23.753906 207.089844 L 28.925781 207.089844 L 28.925781 202.566406 L 30.683594 202.566406 L 30.683594 213 L 28.925781 213 L 28.925781 208.730469 L 23.753906 208.730469 L 23.753906 213 Z M 21.992188 213 "/><path style=" stroke:none;fill-rule:nonzero;fill:#ffffff;fill-opacity:1;" d="M 40.613281 203.476562 C 41.339844 204.082031 41.703125 205.019531 41.703125 206.28125 C 41.703125 207.546875 41.332031 208.472656 40.59375 209.058594 C 39.851562 209.644531 38.714844 209.9375 37.183594 209.9375 L 35.335938 209.9375 L 35.335938 212.996094 L 33.578125 212.996094 L 33.578125 202.566406 L 37.15625 202.566406 C 38.734375 202.566406 39.890625 202.871094 40.613281 203.476562 Z M 39.371094 207.78125 C 39.722656 207.410156 39.898438 206.863281 39.898438 206.140625 C 39.898438 205.417969 39.675781 204.910156 39.230469 204.613281 C 38.78125 204.3125 38.082031 204.164062 37.128906 204.164062 L 35.339844 204.164062 L 35.339844 208.34375 L 37.382812 208.34375 C 38.355469 208.34375 39.015625 208.15625 39.371094 207.78125 Z M 39.371094 207.78125 "/><path style=" stroke:none;fill-rule:nonzero;fill:#464e58;fill-opacity:1;" d="M 216.519531 70.050781 L 216.519531 73.371094 C 223.425781 73.371094 229.269531 68.796875 231.171875 62.5 C 234.167969 72.285156 226.824219 82.285156 216.519531 82.285156 L 216.519531 85.605469 L 205.234375 77.828125 Z M 216.519531 70.050781 "/><path style=" stroke:none;fill-rule:nonzero;fill:#464e58;fill-opacity:1;" d="M 216.523438 63.867188 L 216.523438 60.542969 C 209.617188 60.542969 203.773438 65.117188 201.871094 71.414062 C 198.875 61.628906 206.21875 51.628906 216.523438 51.628906 L 216.523438 48.308594 L 227.808594 56.085938 Z M 216.523438 63.867188 "/><path style=" stroke:none;fill-rule:nonzero;fill:#ffffff;fill-opacity:1;" d="M 298.707031 132.195312 L 298.707031 225.984375 L 245.214844 225.984375 C 245.214844 231.6875 240.601562 236.292969 234.914062 236.292969 C 229.226562 236.292969 224.613281 231.6875 224.613281 225.984375 L 224.613281 132.195312 Z M 298.707031 132.195312 "/><path style=" stroke:none;fill-rule:nonzero;fill:#464e58;fill-opacity:1;" d="M 316.195312 225.984375 C 316.195312 231.6875 311.582031 236.292969 305.894531 236.292969 L 234.914062 236.292969 C 240.601562 236.292969 245.214844 231.6875 245.214844 225.984375 Z M 316.195312 225.984375 "/><path style=" stroke:none;fill-rule:nonzero;fill:#464e58;fill-opacity:1;" d="M 265.007812 141.429688 C 265.460938 143.832031 263.394531 145.898438 260.996094 145.441406 C 259.664062 145.191406 258.570312 144.097656 258.316406 142.765625 C 257.863281 140.359375 259.929688 138.292969 262.332031 138.75 C 263.664062 139 264.753906 140.09375 265.007812 141.429688 Z M 265.007812 141.429688 "/><path style=" stroke:none;fill-rule:nonzero;fill:#25313b;fill-opacity:1;" d="M 263.695312 142.09375 C 263.695312 142.363281 263.644531 142.625 263.539062 142.875 C 263.4375 143.121094 263.289062 143.34375 263.097656 143.535156 C 262.910156 143.722656 262.6875 143.871094 262.441406 143.976562 C 262.191406 144.078125 261.929688 144.128906 261.660156 144.128906 C 261.390625 144.128906 261.132812 144.078125 260.882812 143.976562 C 260.632812 143.871094 260.414062 143.722656 260.222656 143.535156 C 260.035156 143.34375 259.886719 143.121094 259.785156 142.875 C 259.679688 142.625 259.628906 142.363281 259.628906 142.09375 C 259.628906 141.824219 259.679688 141.566406 259.785156 141.316406 C 259.886719 141.066406 260.035156 140.847656 260.222656 140.65625 C 260.414062 140.464844 260.632812 140.320312 260.882812 140.214844 C 261.132812 140.113281 261.390625 140.058594 261.660156 140.058594 C 261.929688 140.058594 262.191406 140.113281 262.441406 140.214844 C 262.6875 140.320312 262.910156 140.464844 263.097656 140.65625 C 263.289062 140.847656 263.4375 141.066406 263.539062 141.316406 C 263.644531 141.566406 263.695312 141.824219 263.695312 142.09375 Z M 263.695312 142.09375 "/><path style=" stroke:none;fill-rule:nonzero;fill:#dad9d8;fill-opacity:1;" d="M 230.066406 156.734375 L 237.992188 156.734375 L 237.992188 158.730469 L 230.066406 158.730469 Z M 230.066406 156.734375 "/><path style=" stroke:none;fill-rule:nonzero;fill:#dad9d8;fill-opacity:1;" d="M 239.273438 156.730469 L 253.347656 156.730469 L 253.347656 158.726562 L 239.273438 158.726562 Z M 239.273438 156.730469 "/><path style=" stroke:none;fill-rule:nonzero;fill:#dad9d8;fill-opacity:1;" d="M 230.066406 166.628906 L 237.992188 166.628906 L 237.992188 168.625 L 230.066406 168.625 Z M 230.066406 166.628906 "/><path style=" stroke:none;fill-rule:nonzero;fill:#dad9d8;fill-opacity:1;" d="M 239.277344 166.628906 L 243.878906 166.628906 L 243.878906 168.625 L 239.277344 168.625 Z M 239.277344 166.628906 "/><path style=" stroke:none;fill-rule:nonzero;fill:#dad9d8;fill-opacity:1;" d="M 245.164062 166.628906 L 254.753906 166.628906 L 254.753906 168.625 L 245.164062 168.625 Z M 245.164062 166.628906 "/><path style=" stroke:none;fill-rule:nonzero;fill:#dad9d8;fill-opacity:1;" d="M 256.039062 166.628906 L 265.625 166.628906 L 265.625 168.625 L 256.039062 168.625 Z M 256.039062 166.628906 "/><path style=" stroke:none;fill-rule:nonzero;fill:#dad9d8;fill-opacity:1;" d="M 266.910156 166.628906 L 276.878906 166.628906 L 276.878906 168.625 L 266.910156 168.625 Z M 266.910156 166.628906 "/><path style=" stroke:none;fill-rule:nonzero;fill:#dad9d8;fill-opacity:1;" d="M 230.066406 161.683594 L 246.5625 161.683594 L 246.5625 163.679688 L 230.066406 163.679688 Z M 230.066406 161.683594 "/><path style=" stroke:none;fill-rule:nonzero;fill:#dad9d8;fill-opacity:1;" d="M 247.84375 161.683594 L 259.628906 161.683594 L 259.628906 163.679688 L 247.84375 163.679688 Z M 247.84375 161.683594 "/><path style=" stroke:none;fill-rule:nonzero;fill:#dad9d8;fill-opacity:1;" d="M 260.90625 161.683594 L 269.753906 161.683594 L 269.753906 163.675781 L 260.90625 163.675781 Z M 260.90625 161.683594 "/><path style=" stroke:none;fill-rule:nonzero;fill:#dad9d8;fill-opacity:1;" d="M 230.066406 171.578125 L 235.371094 171.578125 L 235.371094 173.570312 L 230.066406 173.570312 Z M 230.066406 171.578125 "/><path style=" stroke:none;fill-rule:nonzero;fill:#dad9d8;fill-opacity:1;" d="M 236.652344 171.578125 L 247.203125 171.578125 L 247.203125 173.570312 L 236.652344 173.570312 Z M 236.652344 171.578125 "/><path style=" stroke:none;fill-rule:nonzero;fill:#dad9d8;fill-opacity:1;" d="M 248.488281 171.578125 L 253.964844 171.578125 L 253.964844 173.570312 L 248.488281 173.570312 Z M 248.488281 171.578125 "/><path style=" stroke:none;fill-rule:nonzero;fill:#dad9d8;fill-opacity:1;" d="M 230.066406 181.472656 L 237.992188 181.472656 L 237.992188 183.46875 L 230.066406 183.46875 Z M 230.066406 181.472656 "/><path style=" stroke:none;fill-rule:nonzero;fill:#dad9d8;fill-opacity:1;" d="M 239.277344 181.472656 L 247.203125 181.472656 L 247.203125 183.46875 L 239.277344 183.46875 Z M 239.277344 181.472656 "/><path style=" stroke:none;fill-rule:nonzero;fill:#dad9d8;fill-opacity:1;" d="M 248.488281 181.472656 L 254.753906 181.472656 L 254.753906 183.46875 L 248.488281 183.46875 Z M 248.488281 181.472656 "/><path style=" stroke:none;fill-rule:nonzero;fill:#dad9d8;fill-opacity:1;" d="M 256.039062 181.472656 L 264.21875 181.472656 L 264.21875 183.46875 L 256.039062 183.46875 Z M 256.039062 181.472656 "/><path style=" stroke:none;fill-rule:nonzero;fill:#dad9d8;fill-opacity:1;" d="M 230.066406 176.527344 L 243.238281 176.527344 L 243.238281 178.523438 L 230.066406 178.523438 Z M 230.066406 176.527344 "/><path style=" stroke:none;fill-rule:nonzero;fill:#dad9d8;fill-opacity:1;" d="M 244.519531 176.527344 L 259.628906 176.527344 L 259.628906 178.523438 L 244.519531 178.523438 Z M 244.519531 176.527344 "/><path style=" stroke:none;fill-rule:nonzero;fill:#dad9d8;fill-opacity:1;" d="M 260.90625 176.523438 L 271.953125 176.523438 L 271.953125 178.515625 L 260.90625 178.515625 Z M 260.90625 176.523438 "/><path style=" stroke:none;fill-rule:nonzero;fill:#dad9d8;fill-opacity:1;" d="M 230.066406 186.421875 L 237.992188 186.421875 L 237.992188 188.414062 L 230.066406 188.414062 Z M 230.066406 186.421875 "/><path style=" stroke:none;fill-rule:nonzero;fill:#dad9d8;fill-opacity:1;" d="M 230.066406 196.316406 L 237.992188 196.316406 L 237.992188 198.308594 L 230.066406 198.308594 Z M 230.066406 196.316406 "/><path style=" stroke:none;fill-rule:nonzero;fill:#dad9d8;fill-opacity:1;" d="M 239.277344 196.316406 L 247.203125 196.316406 L 247.203125 198.308594 L 239.277344 198.308594 Z M 239.277344 196.316406 "/><path style=" stroke:none;fill-rule:nonzero;fill:#dad9d8;fill-opacity:1;" d="M 248.488281 196.316406 L 257.054688 196.316406 L 257.054688 198.308594 L 248.488281 198.308594 Z M 248.488281 196.316406 "/><path style=" stroke:none;fill-rule:nonzero;fill:#dad9d8;fill-opacity:1;" d="M 258.34375 196.316406 L 274.34375 196.316406 L 274.34375 198.3125 L 258.34375 198.3125 Z M 258.34375 196.316406 "/><path style=" stroke:none;fill-rule:nonzero;fill:#dad9d8;fill-opacity:1;" d="M 275.625 196.316406 L 289.726562 196.316406 L 289.726562 198.3125 L 275.625 198.3125 Z M 275.625 196.316406 "/><path style=" stroke:none;fill-rule:nonzero;fill:#dad9d8;fill-opacity:1;" d="M 230.066406 191.367188 L 243.238281 191.367188 L 243.238281 193.363281 L 230.066406 193.363281 Z M 230.066406 191.367188 "/><path style=" stroke:none;fill-rule:nonzero;fill:#dad9d8;fill-opacity:1;" d="M 244.519531 191.367188 L 254.167969 191.367188 L 254.167969 193.363281 L 244.519531 193.363281 Z M 244.519531 191.367188 "/><path style=" stroke:none;fill-rule:nonzero;fill:#dad9d8;fill-opacity:1;" d="M 230.066406 201.265625 L 240.296875 201.265625 L 240.296875 203.257812 L 230.066406 203.257812 Z M 230.066406 201.265625 "/><path style=" stroke:none;fill-rule:nonzero;fill:#dad9d8;fill-opacity:1;" d="M 241.582031 201.265625 L 252.128906 201.265625 L 252.128906 203.257812 L 241.582031 203.257812 Z M 241.582031 201.265625 "/><path style=" stroke:none;fill-rule:nonzero;fill:#dad9d8;fill-opacity:1;" d="M 253.414062 201.265625 L 265.625 201.265625 L 265.625 203.257812 L 253.414062 203.257812 Z M 253.414062 201.265625 "/><path style=" stroke:none;fill-rule:nonzero;fill:#dad9d8;fill-opacity:1;" d="M 230.066406 206.210938 L 245.574219 206.210938 L 245.574219 208.207031 L 230.066406 208.207031 Z M 230.066406 206.210938 "/><path style=" stroke:none;fill-rule:nonzero;fill:#dad9d8;fill-opacity:1;" d="M 246.855469 206.210938 L 255.195312 206.210938 L 255.195312 208.207031 L 246.855469 208.207031 Z M 246.855469 206.210938 "/><path style=" stroke:none;fill-rule:nonzero;fill:#dad9d8;fill-opacity:1;" d="M 230.066406 216.105469 L 237.992188 216.105469 L 237.992188 218.101562 L 230.066406 218.101562 Z M 230.066406 216.105469 "/><path style=" stroke:none;fill-rule:nonzero;fill:#dad9d8;fill-opacity:1;" d="M 239.277344 216.105469 L 247.203125 216.105469 L 247.203125 218.101562 L 239.277344 218.101562 Z M 239.277344 216.105469 "/><path style=" stroke:none;fill-rule:nonzero;fill:#dad9d8;fill-opacity:1;" d="M 248.488281 216.109375 L 265.632812 216.109375 L 265.632812 218.101562 L 248.488281 218.101562 Z M 248.488281 216.109375 "/><path style=" stroke:none;fill-rule:nonzero;fill:#dad9d8;fill-opacity:1;" d="M 266.910156 216.105469 L 276.878906 216.105469 L 276.878906 218.101562 L 266.910156 218.101562 Z M 266.910156 216.105469 "/><path style=" stroke:none;fill-rule:nonzero;fill:#dad9d8;fill-opacity:1;" d="M 230.066406 211.160156 L 240.941406 211.160156 L 240.941406 213.152344 L 230.066406 213.152344 Z M 230.066406 211.160156 "/><path style=" stroke:none;fill-rule:nonzero;fill:#dad9d8;fill-opacity:1;" d="M 242.222656 211.160156 L 250.578125 211.160156 L 250.578125 213.152344 L 242.222656 213.152344 Z M 242.222656 211.160156 "/><path style=" stroke:none;fill-rule:nonzero;fill:#dad9d8;fill-opacity:1;" d="M 252.617188 211.160156 L 259.628906 211.160156 L 259.628906 213.152344 L 252.617188 213.152344 Z M 252.617188 211.160156 "/><path style=" stroke:none;fill-rule:nonzero;fill:#dad9d8;fill-opacity:1;" d="M 260.90625 211.15625 L 269.449219 211.15625 L 269.449219 213.152344 L 260.90625 213.152344 Z M 260.90625 211.15625 "/><path style=" stroke:none;fill-rule:nonzero;fill:#f37c5a;fill-opacity:1;" d="M 190.070312 133.441406 C 190.070312 134.46875 189.972656 135.488281 189.769531 136.496094 C 189.570312 137.503906 189.273438 138.484375 188.878906 139.433594 C 188.488281 140.382812 188.003906 141.285156 187.433594 142.140625 C 186.863281 142.996094 186.214844 143.785156 185.488281 144.511719 C 184.761719 145.238281 183.972656 145.890625 183.117188 146.460938 C 182.265625 147.03125 181.363281 147.511719 180.414062 147.90625 C 179.464844 148.300781 178.488281 148.597656 177.480469 148.796875 C 176.472656 149 175.453125 149.097656 174.425781 149.097656 C 173.402344 149.097656 172.382812 149 171.375 148.796875 C 170.367188 148.597656 169.390625 148.300781 168.441406 147.90625 C 167.492188 147.511719 166.589844 147.03125 165.734375 146.460938 C 164.882812 145.890625 164.09375 145.238281 163.367188 144.511719 C 162.640625 143.785156 161.992188 142.996094 161.421875 142.140625 C 160.847656 141.285156 160.367188 140.382812 159.972656 139.433594 C 159.582031 138.484375 159.285156 137.503906 159.085938 136.496094 C 158.882812 135.488281 158.785156 134.46875 158.785156 133.441406 C 158.785156 132.414062 158.882812 131.394531 159.085938 130.386719 C 159.285156 129.378906 159.582031 128.398438 159.972656 127.449219 C 160.367188 126.5 160.847656 125.597656 161.421875 124.742188 C 161.992188 123.886719 162.640625 123.097656 163.367188 122.371094 C 164.09375 121.644531 164.882812 120.992188 165.734375 120.421875 C 166.589844 119.851562 167.492188 119.367188 168.441406 118.976562 C 169.390625 118.582031 170.367188 118.285156 171.375 118.085938 C 172.382812 117.882812 173.402344 117.785156 174.425781 117.785156 C 175.453125 117.785156 176.472656 117.882812 177.480469 118.085938 C 178.488281 118.285156 179.464844 118.582031 180.414062 118.976562 C 181.363281 119.367188 182.265625 119.851562 183.117188 120.421875 C 183.972656 120.992188 184.761719 121.644531 185.488281 122.371094 C 186.214844 123.097656 186.863281 123.886719 187.433594 124.742188 C 188.003906 125.597656 188.488281 126.5 188.878906 127.449219 C 189.273438 128.398438 189.570312 129.378906 189.769531 130.386719 C 189.972656 131.394531 190.070312 132.414062 190.070312 133.441406 Z M 190.070312 133.441406 "/><path style=" stroke:none;fill-rule:nonzero;fill:#ffffff;fill-opacity:1;" d="M 163.554688 134.015625 L 163.554688 132.128906 L 170.589844 128.875 L 170.589844 130.578125 L 165.332031 132.953125 L 165.332031 133.117188 L 170.589844 135.554688 L 170.589844 137.257812 Z M 163.554688 134.015625 "/><path style=" stroke:none;fill-rule:nonzero;fill:#ffffff;fill-opacity:1;" d="M 173.902344 139.769531 L 176.640625 127.113281 L 175.148438 127.113281 L 172.410156 139.769531 Z M 173.902344 139.769531 "/><path style=" stroke:none;fill-rule:nonzero;fill:#ffffff;fill-opacity:1;" d="M 185.296875 132.128906 L 185.296875 134.015625 L 178.265625 137.257812 L 178.265625 135.554688 L 183.523438 133.117188 L 183.523438 132.953125 L 178.265625 130.578125 L 178.265625 128.875 Z M 185.296875 132.128906 "/><g clip-rule="nonzero" clip-path="url(#7475084f68)"><path style=" stroke:none;fill-rule:nonzero;fill:#7ccedc;fill-opacity:1;" d="M 321.625 165.433594 L 321.625 148.257812 C 321.625 146.820312 320.460938 145.65625 319.027344 145.65625 L 286.050781 145.65625 C 284.613281 145.65625 283.453125 146.820312 283.453125 148.257812 L 283.453125 165.433594 C 283.453125 166.871094 284.617188 168.035156 286.050781 168.035156 L 319.027344 168.035156 C 320.460938 168.035156 321.625 166.871094 321.625 165.433594 Z M 321.625 165.433594 "/></g><path style=" stroke:none;fill-rule:nonzero;fill:#ffffff;fill-opacity:1;" d="M 292.640625 161.703125 C 291.328125 161.703125 290.199219 161.257812 289.253906 160.367188 C 288.308594 159.472656 287.835938 158.304688 287.835938 156.863281 C 287.835938 155.421875 288.332031 154.25 289.316406 153.34375 C 290.300781 152.441406 291.503906 151.988281 292.921875 151.988281 C 294.335938 151.988281 295.535156 152.480469 296.515625 153.460938 L 295.347656 154.898438 C 294.53125 154.1875 293.710938 153.832031 292.886719 153.832031 C 292.058594 153.832031 291.339844 154.109375 290.734375 154.65625 C 290.125 155.207031 289.820312 155.917969 289.820312 156.785156 C 289.820312 157.652344 290.121094 158.390625 290.722656 158.992188 C 291.324219 159.59375 292.066406 159.898438 292.945312 159.898438 C 293.824219 159.898438 294.65625 159.496094 295.4375 158.691406 L 296.605469 159.96875 C 295.460938 161.125 294.140625 161.703125 292.640625 161.703125 Z M 292.640625 161.703125 "/><path style=" stroke:none;fill-rule:nonzero;fill:#ffffff;fill-opacity:1;" d="M 301.828125 161.03125 L 301.828125 157.660156 L 298.445312 157.660156 L 298.445312 155.996094 L 301.828125 155.996094 L 301.828125 152.660156 L 303.425781 152.660156 L 303.425781 155.996094 L 306.808594 155.996094 L 306.808594 157.660156 L 303.425781 157.660156 L 303.425781 161.03125 Z M 301.828125 161.03125 "/><path style=" stroke:none;fill-rule:nonzero;fill:#ffffff;fill-opacity:1;" d="M 312.261719 161.03125 L 312.261719 157.660156 L 308.875 157.660156 L 308.875 155.996094 L 312.261719 155.996094 L 312.261719 152.660156 L 313.855469 152.660156 L 313.855469 155.996094 L 317.238281 155.996094 L 317.238281 157.660156 L 313.855469 157.660156 L 313.855469 161.03125 Z M 312.261719 161.03125 "/><path style=" stroke:none;fill-rule:nonzero;fill:#ffffff;fill-opacity:1;" d="M 267.945312 272.753906 C 266.027344 258.386719 255.617188 250.234375 242.234375 250.234375 C 228.847656 250.234375 218.441406 258.386719 216.523438 272.753906 Z M 267.945312 272.753906 "/><path style=" stroke:none;fill-rule:nonzero;fill:#f2f2f2;fill-opacity:1;" d="M 261.128906 257.761719 C 251.554688 266.613281 233.320312 271.1875 217.21875 269.230469 C 216.933594 270.363281 216.683594 271.527344 216.519531 272.753906 L 267.941406 272.753906 C 267.113281 266.539062 264.691406 261.492188 261.128906 257.761719 Z M 261.128906 257.761719 "/><g clip-rule="nonzero" clip-path="url(#ade8a5db17)"><g clip-rule="nonzero" clip-path="url(#2304b8fe95)"><path style=" stroke:none;fill-rule:nonzero;fill:#374151;fill-opacity:1;" d="M 147.460938 242.601562 L 233.183594 242.601562 L 233.183594 270.699219 L 147.460938 270.699219 Z M 147.460938 242.601562 "/></g></g><g style="fill:#ffffff;fill-opacity:1;"><g transform="translate(163.080089, 261.307344)"><path style="stroke:none" d="M 8.265625 -4.5 C 8.265625 -3.039062 7.867188 -1.925781 7.078125 -1.15625 C 6.285156 -0.382812 5.144531 0 3.65625 0 L 1.21875 0 L 1.21875 -8.828125 L 3.921875 -8.828125 C 5.296875 -8.828125 6.363281 -8.445312 7.125 -7.6875 C 7.882812 -6.925781 8.265625 -5.863281 8.265625 -4.5 Z M 7.171875 -4.46875 C 7.171875 -5.613281 6.878906 -6.476562 6.296875 -7.0625 C 5.722656 -7.65625 4.867188 -7.953125 3.734375 -7.953125 L 2.234375 -7.953125 L 2.234375 -0.890625 L 3.5 -0.890625 C 4.71875 -0.890625 5.632812 -1.1875 6.25 -1.78125 C 6.863281 -2.382812 7.171875 -3.28125 7.171875 -4.46875 Z M 7.171875 -4.46875 "/></g></g><g style="fill:#ffffff;fill-opacity:1;"><g transform="translate(172.097675, 261.307344)"><path style="stroke:none" d="M 5.140625 0 L 4.9375 -0.9375 L 4.890625 -0.9375 C 4.554688 -0.519531 4.222656 -0.238281 3.890625 -0.09375 C 3.566406 0.0507812 3.160156 0.125 2.671875 0.125 C 2.015625 0.125 1.5 -0.0390625 1.125 -0.375 C 0.75 -0.71875 0.5625 -1.203125 0.5625 -1.828125 C 0.5625 -3.171875 1.632812 -3.875 3.78125 -3.9375 L 4.90625 -3.96875 L 4.90625 -4.375 C 4.90625 -4.894531 4.789062 -5.28125 4.5625 -5.53125 C 4.34375 -5.78125 3.988281 -5.90625 3.5 -5.90625 C 2.945312 -5.90625 2.320312 -5.734375 1.625 -5.390625 L 1.3125 -6.15625 C 1.632812 -6.332031 1.988281 -6.472656 2.375 -6.578125 C 2.769531 -6.679688 3.160156 -6.734375 3.546875 -6.734375 C 4.335938 -6.734375 4.921875 -6.554688 5.296875 -6.203125 C 5.679688 -5.859375 5.875 -5.296875 5.875 -4.515625 L 5.875 0 Z M 2.875 -0.703125 C 3.5 -0.703125 3.988281 -0.875 4.34375 -1.21875 C 4.695312 -1.5625 4.875 -2.039062 4.875 -2.65625 L 4.875 -3.25 L 3.875 -3.21875 C 3.070312 -3.1875 2.492188 -3.0625 2.140625 -2.84375 C 1.796875 -2.625 1.625 -2.28125 1.625 -1.8125 C 1.625 -1.457031 1.734375 -1.179688 1.953125 -0.984375 C 2.171875 -0.796875 2.476562 -0.703125 2.875 -0.703125 Z M 2.875 -0.703125 "/></g></g><g style="fill:#ffffff;fill-opacity:1;"><g transform="translate(178.977133, 261.307344)"><path style="stroke:none" d="M 3.203125 -0.703125 C 3.378906 -0.703125 3.550781 -0.710938 3.71875 -0.734375 C 3.882812 -0.765625 4.015625 -0.796875 4.109375 -0.828125 L 4.109375 -0.0625 C 4.003906 -0.0078125 3.84375 0.03125 3.625 0.0625 C 3.414062 0.101562 3.226562 0.125 3.0625 0.125 C 1.78125 0.125 1.140625 -0.550781 1.140625 -1.90625 L 1.140625 -5.84375 L 0.1875 -5.84375 L 0.1875 -6.328125 L 1.140625 -6.75 L 1.5625 -8.15625 L 2.140625 -8.15625 L 2.140625 -6.625 L 4.0625 -6.625 L 4.0625 -5.84375 L 2.140625 -5.84375 L 2.140625 -1.953125 C 2.140625 -1.546875 2.234375 -1.234375 2.421875 -1.015625 C 2.609375 -0.804688 2.867188 -0.703125 3.203125 -0.703125 Z M 3.203125 -0.703125 "/></g></g><g style="fill:#ffffff;fill-opacity:1;"><g transform="translate(183.343989, 261.307344)"><path style="stroke:none" d="M 5.140625 0 L 4.9375 -0.9375 L 4.890625 -0.9375 C 4.554688 -0.519531 4.222656 -0.238281 3.890625 -0.09375 C 3.566406 0.0507812 3.160156 0.125 2.671875 0.125 C 2.015625 0.125 1.5 -0.0390625 1.125 -0.375 C 0.75 -0.71875 0.5625 -1.203125 0.5625 -1.828125 C 0.5625 -3.171875 1.632812 -3.875 3.78125 -3.9375 L 4.90625 -3.96875 L 4.90625 -4.375 C 4.90625 -4.894531 4.789062 -5.28125 4.5625 -5.53125 C 4.34375 -5.78125 3.988281 -5.90625 3.5 -5.90625 C 2.945312 -5.90625 2.320312 -5.734375 1.625 -5.390625 L 1.3125 -6.15625 C 1.632812 -6.332031 1.988281 -6.472656 2.375 -6.578125 C 2.769531 -6.679688 3.160156 -6.734375 3.546875 -6.734375 C 4.335938 -6.734375 4.921875 -6.554688 5.296875 -6.203125 C 5.679688 -5.859375 5.875 -5.296875 5.875 -4.515625 L 5.875 0 Z M 2.875 -0.703125 C 3.5 -0.703125 3.988281 -0.875 4.34375 -1.21875 C 4.695312 -1.5625 4.875 -2.039062 4.875 -2.65625 L 4.875 -3.25 L 3.875 -3.21875 C 3.070312 -3.1875 2.492188 -3.0625 2.140625 -2.84375 C 1.796875 -2.625 1.625 -2.28125 1.625 -1.8125 C 1.625 -1.457031 1.734375 -1.179688 1.953125 -0.984375 C 2.171875 -0.796875 2.476562 -0.703125 2.875 -0.703125 Z M 2.875 -0.703125 "/></g></g><g style="fill:#ffffff;fill-opacity:1;"><g transform="translate(190.223447, 261.307344)"><path style="stroke:none" d="M 4.140625 -6.734375 C 5.015625 -6.734375 5.691406 -6.4375 6.171875 -5.84375 C 6.648438 -5.25 6.890625 -4.40625 6.890625 -3.3125 C 6.890625 -2.226562 6.644531 -1.382812 6.15625 -0.78125 C 5.675781 -0.175781 5.003906 0.125 4.140625 0.125 C 3.710938 0.125 3.316406 0.046875 2.953125 -0.109375 C 2.597656 -0.273438 2.300781 -0.523438 2.0625 -0.859375 L 2 -0.859375 L 1.78125 0 L 1.0625 0 L 1.0625 -9.40625 L 2.0625 -9.40625 L 2.0625 -7.125 C 2.0625 -6.601562 2.046875 -6.140625 2.015625 -5.734375 L 2.0625 -5.734375 C 2.53125 -6.398438 3.222656 -6.734375 4.140625 -6.734375 Z M 4 -5.890625 C 3.3125 -5.890625 2.816406 -5.691406 2.515625 -5.296875 C 2.210938 -4.910156 2.0625 -4.25 2.0625 -3.3125 C 2.0625 -2.382812 2.21875 -1.71875 2.53125 -1.3125 C 2.84375 -0.914062 3.34375 -0.71875 4.03125 -0.71875 C 4.644531 -0.71875 5.101562 -0.941406 5.40625 -1.390625 C 5.707031 -1.835938 5.859375 -2.484375 5.859375 -3.328125 C 5.859375 -4.191406 5.707031 -4.832031 5.40625 -5.25 C 5.101562 -5.675781 4.632812 -5.890625 4 -5.890625 Z M 4 -5.890625 "/></g></g><g style="fill:#ffffff;fill-opacity:1;"><g transform="translate(197.803535, 261.307344)"><path style="stroke:none" d="M 5.140625 0 L 4.9375 -0.9375 L 4.890625 -0.9375 C 4.554688 -0.519531 4.222656 -0.238281 3.890625 -0.09375 C 3.566406 0.0507812 3.160156 0.125 2.671875 0.125 C 2.015625 0.125 1.5 -0.0390625 1.125 -0.375 C 0.75 -0.71875 0.5625 -1.203125 0.5625 -1.828125 C 0.5625 -3.171875 1.632812 -3.875 3.78125 -3.9375 L 4.90625 -3.96875 L 4.90625 -4.375 C 4.90625 -4.894531 4.789062 -5.28125 4.5625 -5.53125 C 4.34375 -5.78125 3.988281 -5.90625 3.5 -5.90625 C 2.945312 -5.90625 2.320312 -5.734375 1.625 -5.390625 L 1.3125 -6.15625 C 1.632812 -6.332031 1.988281 -6.472656 2.375 -6.578125 C 2.769531 -6.679688 3.160156 -6.734375 3.546875 -6.734375 C 4.335938 -6.734375 4.921875 -6.554688 5.296875 -6.203125 C 5.679688 -5.859375 5.875 -5.296875 5.875 -4.515625 L 5.875 0 Z M 2.875 -0.703125 C 3.5 -0.703125 3.988281 -0.875 4.34375 -1.21875 C 4.695312 -1.5625 4.875 -2.039062 4.875 -2.65625 L 4.875 -3.25 L 3.875 -3.21875 C 3.070312 -3.1875 2.492188 -3.0625 2.140625 -2.84375 C 1.796875 -2.625 1.625 -2.28125 1.625 -1.8125 C 1.625 -1.457031 1.734375 -1.179688 1.953125 -0.984375 C 2.171875 -0.796875 2.476562 -0.703125 2.875 -0.703125 Z M 2.875 -0.703125 "/></g></g><g style="fill:#ffffff;fill-opacity:1;"><g transform="translate(204.682993, 261.307344)"><path style="stroke:none" d="M 5.328125 -1.8125 C 5.328125 -1.1875 5.097656 -0.707031 4.640625 -0.375 C 4.179688 -0.0390625 3.539062 0.125 2.71875 0.125 C 1.832031 0.125 1.144531 -0.015625 0.65625 -0.296875 L 0.65625 -1.234375 C 0.976562 -1.066406 1.320312 -0.9375 1.6875 -0.84375 C 2.050781 -0.75 2.398438 -0.703125 2.734375 -0.703125 C 3.253906 -0.703125 3.65625 -0.785156 3.9375 -0.953125 C 4.226562 -1.117188 4.375 -1.375 4.375 -1.71875 C 4.375 -1.976562 4.257812 -2.195312 4.03125 -2.375 C 3.8125 -2.5625 3.375 -2.78125 2.71875 -3.03125 C 2.101562 -3.257812 1.664062 -3.457031 1.40625 -3.625 C 1.144531 -3.800781 0.953125 -4 0.828125 -4.21875 C 0.703125 -4.4375 0.640625 -4.695312 0.640625 -5 C 0.640625 -5.539062 0.859375 -5.96875 1.296875 -6.28125 C 1.734375 -6.59375 2.335938 -6.75 3.109375 -6.75 C 3.816406 -6.75 4.515625 -6.601562 5.203125 -6.3125 L 4.84375 -5.5 C 4.175781 -5.769531 3.570312 -5.90625 3.03125 -5.90625 C 2.5625 -5.90625 2.203125 -5.828125 1.953125 -5.671875 C 1.710938 -5.523438 1.59375 -5.320312 1.59375 -5.0625 C 1.59375 -4.882812 1.632812 -4.734375 1.71875 -4.609375 C 1.8125 -4.484375 1.957031 -4.363281 2.15625 -4.25 C 2.363281 -4.132812 2.753906 -3.972656 3.328125 -3.765625 C 4.109375 -3.472656 4.632812 -3.179688 4.90625 -2.890625 C 5.1875 -2.609375 5.328125 -2.25 5.328125 -1.8125 Z M 5.328125 -1.8125 "/></g></g><g style="fill:#ffffff;fill-opacity:1;"><g transform="translate(210.583985, 261.307344)"><path style="stroke:none" d="M 3.859375 0.125 C 2.878906 0.125 2.101562 -0.171875 1.53125 -0.765625 C 0.96875 -1.367188 0.6875 -2.195312 0.6875 -3.25 C 0.6875 -4.320312 0.945312 -5.171875 1.46875 -5.796875 C 2 -6.429688 2.707031 -6.75 3.59375 -6.75 C 4.425781 -6.75 5.082031 -6.472656 5.5625 -5.921875 C 6.050781 -5.378906 6.296875 -4.660156 6.296875 -3.765625 L 6.296875 -3.125 L 1.734375 -3.125 C 1.753906 -2.351562 1.945312 -1.765625 2.3125 -1.359375 C 2.6875 -0.953125 3.210938 -0.75 3.890625 -0.75 C 4.609375 -0.75 5.316406 -0.898438 6.015625 -1.203125 L 6.015625 -0.3125 C 5.660156 -0.15625 5.320312 -0.046875 5 0.015625 C 4.6875 0.0859375 4.304688 0.125 3.859375 0.125 Z M 3.59375 -5.90625 C 3.0625 -5.90625 2.632812 -5.726562 2.3125 -5.375 C 2 -5.03125 1.816406 -4.554688 1.765625 -3.953125 L 5.21875 -3.953125 C 5.21875 -4.578125 5.078125 -5.054688 4.796875 -5.390625 C 4.515625 -5.734375 4.113281 -5.90625 3.59375 -5.90625 Z M 3.59375 -5.90625 "/></g></g><g clip-rule="nonzero" clip-path="url(#3dae2cad04)"><path style=" stroke:none;fill-rule:nonzero;fill:#000000;fill-opacity:1;" d="M 183.695312 298.828125 C 184.046875 298.832031 184.394531 298.800781 184.742188 298.734375 C 185.085938 298.667969 185.421875 298.566406 185.75 298.433594 C 186.074219 298.304688 186.382812 298.140625 186.679688 297.949219 C 186.972656 297.753906 187.242188 297.535156 187.492188 297.289062 C 187.746094 297.042969 187.96875 296.773438 188.164062 296.484375 C 188.363281 296.195312 188.53125 295.886719 188.664062 295.566406 C 188.800781 295.242188 188.90625 294.910156 188.976562 294.566406 C 189.046875 294.222656 189.082031 293.878906 189.085938 293.527344 C 189.085938 293.175781 189.054688 292.828125 188.988281 292.484375 C 188.921875 292.140625 188.820312 291.808594 188.6875 291.484375 C 188.554688 291.160156 188.390625 290.851562 188.199219 290.558594 C 188.003906 290.265625 187.785156 289.996094 187.535156 289.746094 C 187.289062 289.5 187.019531 289.277344 186.726562 289.082031 C 186.4375 288.882812 186.128906 288.71875 185.804688 288.582031 C 185.476562 288.445312 185.144531 288.34375 184.800781 288.273438 C 184.453125 288.203125 184.105469 288.167969 183.753906 288.164062 C 183.675781 287.835938 183.546875 287.523438 183.367188 287.238281 C 183.183594 286.949219 182.957031 286.703125 182.691406 286.488281 C 182.425781 286.277344 182.128906 286.117188 181.808594 286.003906 C 181.484375 285.890625 181.152344 285.835938 180.8125 285.835938 C 180.679688 285.835938 180.550781 285.84375 180.421875 285.859375 C 180.105469 285.476562 179.738281 285.152344 179.320312 284.882812 C 178.90625 284.613281 178.457031 284.417969 177.976562 284.289062 C 177.496094 284.164062 177.003906 284.113281 176.507812 284.136719 C 176.011719 284.164062 175.53125 284.261719 175.066406 284.441406 C 174.617188 283.835938 174.085938 283.3125 173.476562 282.867188 C 172.867188 282.425781 172.203125 282.082031 171.484375 281.839844 C 170.769531 281.601562 170.035156 281.46875 169.277344 281.453125 C 168.523438 281.433594 167.78125 281.527344 167.054688 281.734375 C 166.328125 281.941406 165.648438 282.253906 165.015625 282.667969 C 164.386719 283.078125 163.828125 283.578125 163.351562 284.160156 C 162.871094 284.742188 162.492188 285.382812 162.210938 286.078125 C 161.925781 286.777344 161.757812 287.5 161.695312 288.25 C 161.371094 288.308594 161.050781 288.394531 160.742188 288.511719 C 160.429688 288.628906 160.132812 288.773438 159.851562 288.945312 C 159.566406 289.117188 159.300781 289.316406 159.054688 289.535156 C 158.808594 289.757812 158.585938 290 158.382812 290.261719 C 158.183594 290.523438 158.007812 290.800781 157.855469 291.097656 C 157.707031 291.390625 157.585938 291.699219 157.496094 292.015625 C 157.402344 292.332031 157.339844 292.65625 157.308594 292.984375 C 157.277344 293.3125 157.273438 293.640625 157.304688 293.96875 C 157.332031 294.296875 157.394531 294.621094 157.484375 294.9375 C 157.574219 295.257812 157.691406 295.5625 157.835938 295.859375 C 157.984375 296.15625 158.15625 296.4375 158.355469 296.699219 C 158.558594 296.964844 158.777344 297.207031 159.023438 297.429688 C 159.269531 297.652344 159.53125 297.851562 159.8125 298.027344 C 160.09375 298.199219 160.390625 298.347656 160.699219 298.46875 C 161.011719 298.585938 161.328125 298.675781 161.652344 298.738281 C 161.980469 298.800781 162.308594 298.828125 162.640625 298.828125 L 163.796875 298.828125 L 163.796875 302.597656 C 163.792969 302.945312 163.734375 303.277344 163.617188 303.601562 C 163.5 303.925781 163.328125 304.222656 163.105469 304.484375 C 162.886719 304.75 162.625 304.96875 162.328125 305.144531 C 162.027344 305.320312 161.707031 305.4375 161.367188 305.5 C 161.308594 305.347656 161.234375 305.203125 161.144531 305.066406 C 161.050781 304.929688 160.945312 304.804688 160.824219 304.695312 C 160.703125 304.582031 160.570312 304.484375 160.425781 304.40625 C 160.28125 304.324219 160.128906 304.261719 159.972656 304.214844 C 159.8125 304.171875 159.648438 304.144531 159.484375 304.136719 C 159.320312 304.128906 159.15625 304.140625 158.996094 304.171875 C 158.832031 304.203125 158.675781 304.253906 158.523438 304.320312 C 158.375 304.390625 158.234375 304.472656 158.101562 304.574219 C 157.972656 304.675781 157.855469 304.789062 157.75 304.917969 C 157.648438 305.042969 157.5625 305.183594 157.488281 305.332031 C 157.417969 305.480469 157.367188 305.632812 157.332031 305.792969 C 157.296875 305.957031 157.28125 306.117188 157.285156 306.28125 C 157.289062 306.445312 157.3125 306.609375 157.355469 306.765625 C 157.398438 306.925781 157.457031 307.078125 157.535156 307.222656 C 157.613281 307.367188 157.710938 307.5 157.820312 307.625 C 157.929688 307.746094 158.050781 307.855469 158.1875 307.949219 C 158.324219 308.042969 158.46875 308.121094 158.621094 308.179688 C 158.773438 308.238281 158.933594 308.28125 159.097656 308.304688 C 159.261719 308.328125 159.425781 308.332031 159.589844 308.316406 C 159.753906 308.300781 159.914062 308.265625 160.070312 308.210938 C 160.226562 308.160156 160.375 308.089844 160.515625 308.003906 C 160.65625 307.914062 160.78125 307.8125 160.898438 307.695312 C 161.011719 307.578125 161.113281 307.449219 161.199219 307.308594 C 161.285156 307.164062 161.351562 307.015625 161.398438 306.859375 C 161.917969 306.789062 162.410156 306.632812 162.867188 306.386719 C 163.328125 306.136719 163.730469 305.820312 164.078125 305.425781 C 164.421875 305.035156 164.683594 304.597656 164.871094 304.109375 C 165.054688 303.621094 165.148438 303.117188 165.148438 302.597656 L 165.148438 298.828125 L 169.765625 298.828125 L 169.765625 308.96875 C 169.609375 309.023438 169.460938 309.09375 169.320312 309.179688 C 169.179688 309.269531 169.050781 309.371094 168.933594 309.488281 C 168.816406 309.605469 168.71875 309.738281 168.632812 309.878906 C 168.546875 310.019531 168.476562 310.167969 168.429688 310.324219 C 168.378906 310.484375 168.347656 310.644531 168.335938 310.808594 C 168.324219 310.972656 168.332031 311.136719 168.359375 311.300781 C 168.386719 311.460938 168.429688 311.621094 168.496094 311.773438 C 168.558594 311.925781 168.640625 312.066406 168.738281 312.199219 C 168.835938 312.332031 168.949219 312.453125 169.074219 312.558594 C 169.203125 312.667969 169.339844 312.757812 169.488281 312.832031 C 169.632812 312.90625 169.789062 312.960938 169.949219 313 C 170.113281 313.039062 170.277344 313.058594 170.441406 313.058594 C 170.605469 313.058594 170.769531 313.039062 170.933594 313 C 171.09375 312.960938 171.25 312.90625 171.394531 312.832031 C 171.542969 312.757812 171.679688 312.667969 171.808594 312.558594 C 171.933594 312.453125 172.046875 312.332031 172.144531 312.199219 C 172.242188 312.066406 172.324219 311.925781 172.386719 311.773438 C 172.453125 311.621094 172.496094 311.460938 172.523438 311.300781 C 172.550781 311.136719 172.558594 310.972656 172.546875 310.808594 C 172.535156 310.644531 172.503906 310.484375 172.453125 310.324219 C 172.402344 310.167969 172.335938 310.019531 172.25 309.878906 C 172.164062 309.738281 172.066406 309.605469 171.949219 309.488281 C 171.832031 309.371094 171.703125 309.269531 171.5625 309.179688 C 171.421875 309.09375 171.273438 309.023438 171.117188 308.96875 L 171.117188 298.828125 L 175.738281 298.828125 L 175.738281 306.753906 C 175.578125 306.808594 175.429688 306.878906 175.289062 306.964844 C 175.152344 307.050781 175.023438 307.15625 174.90625 307.273438 C 174.789062 307.390625 174.691406 307.519531 174.605469 307.660156 C 174.519531 307.804688 174.453125 307.953125 174.402344 308.109375 C 174.351562 308.265625 174.320312 308.425781 174.308594 308.589844 C 174.296875 308.757812 174.304688 308.917969 174.332031 309.082031 C 174.359375 309.246094 174.402344 309.402344 174.46875 309.554688 C 174.53125 309.707031 174.613281 309.847656 174.710938 309.980469 C 174.808594 310.113281 174.921875 310.234375 175.046875 310.339844 C 175.175781 310.449219 175.3125 310.539062 175.460938 310.613281 C 175.605469 310.6875 175.761719 310.742188 175.921875 310.78125 C 176.082031 310.820312 176.246094 310.839844 176.414062 310.839844 C 176.578125 310.839844 176.742188 310.820312 176.902344 310.78125 C 177.0625 310.742188 177.21875 310.6875 177.367188 310.613281 C 177.515625 310.539062 177.652344 310.449219 177.777344 310.339844 C 177.90625 310.234375 178.015625 310.113281 178.113281 309.980469 C 178.210938 309.847656 178.292969 309.707031 178.359375 309.554688 C 178.421875 309.402344 178.46875 309.246094 178.496094 309.082031 C 178.519531 308.917969 178.527344 308.757812 178.515625 308.589844 C 178.503906 308.425781 178.472656 308.265625 178.425781 308.109375 C 178.375 307.953125 178.308594 307.804688 178.222656 307.660156 C 178.136719 307.519531 178.035156 307.390625 177.917969 307.273438 C 177.804688 307.15625 177.675781 307.050781 177.535156 306.964844 C 177.394531 306.878906 177.246094 306.808594 177.089844 306.753906 L 177.089844 298.828125 L 181.28125 298.828125 L 181.28125 301.855469 C 181.28125 302.363281 181.371094 302.855469 181.550781 303.332031 C 181.730469 303.808594 181.988281 304.238281 182.324219 304.621094 C 182.660156 305.003906 183.054688 305.316406 183.503906 305.558594 C 183.953125 305.800781 184.429688 305.957031 184.9375 306.027344 C 184.988281 306.183594 185.054688 306.332031 185.140625 306.476562 C 185.222656 306.617188 185.324219 306.746094 185.441406 306.863281 C 185.554688 306.984375 185.683594 307.085938 185.824219 307.171875 C 185.964844 307.261719 186.113281 307.332031 186.269531 307.386719 C 186.425781 307.4375 186.585938 307.472656 186.753906 307.488281 C 186.917969 307.503906 187.082031 307.5 187.246094 307.476562 C 187.410156 307.457031 187.570312 307.414062 187.722656 307.351562 C 187.878906 307.292969 188.023438 307.214844 188.160156 307.121094 C 188.296875 307.027344 188.417969 306.917969 188.53125 306.796875 C 188.640625 306.671875 188.734375 306.539062 188.8125 306.394531 C 188.890625 306.246094 188.953125 306.09375 188.996094 305.9375 C 189.039062 305.777344 189.0625 305.613281 189.066406 305.449219 C 189.070312 305.285156 189.054688 305.121094 189.019531 304.960938 C 188.984375 304.796875 188.933594 304.644531 188.859375 304.496094 C 188.789062 304.34375 188.703125 304.207031 188.597656 304.078125 C 188.492188 303.949219 188.375 303.835938 188.246094 303.734375 C 188.113281 303.632812 187.972656 303.550781 187.820312 303.480469 C 187.667969 303.414062 187.511719 303.363281 187.351562 303.332031 C 187.1875 303.300781 187.023438 303.289062 186.855469 303.296875 C 186.691406 303.304688 186.527344 303.332031 186.371094 303.378906 C 186.210938 303.421875 186.058594 303.488281 185.914062 303.566406 C 185.769531 303.648438 185.636719 303.746094 185.515625 303.859375 C 185.394531 303.96875 185.285156 304.09375 185.195312 304.230469 C 185.101562 304.367188 185.027344 304.515625 184.96875 304.667969 C 184.640625 304.605469 184.332031 304.488281 184.042969 304.320312 C 183.753906 304.148438 183.503906 303.933594 183.292969 303.675781 C 183.078125 303.421875 182.914062 303.132812 182.800781 302.820312 C 182.6875 302.507812 182.632812 302.183594 182.632812 301.847656 L 182.632812 298.824219 Z M 159.390625 306.980469 C 159.179688 306.976562 159.003906 306.902344 158.855469 306.753906 C 158.710938 306.605469 158.636719 306.429688 158.636719 306.222656 C 158.640625 306.015625 158.714844 305.835938 158.863281 305.691406 C 159.011719 305.546875 159.1875 305.472656 159.398438 305.472656 C 159.605469 305.472656 159.785156 305.546875 159.933594 305.695312 C 160.078125 305.839844 160.152344 306.019531 160.152344 306.226562 C 160.152344 306.433594 160.078125 306.613281 159.929688 306.761719 C 159.777344 306.90625 159.597656 306.980469 159.390625 306.980469 Z M 170.441406 311.710938 C 170.230469 311.710938 170.054688 311.636719 169.90625 311.488281 C 169.757812 311.339844 169.683594 311.164062 169.6875 310.957031 C 169.6875 310.746094 169.761719 310.570312 169.910156 310.421875 C 170.054688 310.277344 170.234375 310.203125 170.445312 310.203125 C 170.652344 310.203125 170.832031 310.277344 170.980469 310.425781 C 171.125 310.570312 171.199219 310.75 171.199219 310.957031 C 171.199219 311.164062 171.125 311.34375 170.976562 311.488281 C 170.828125 311.636719 170.652344 311.710938 170.441406 311.710938 Z M 176.414062 309.496094 C 176.203125 309.496094 176.023438 309.421875 175.875 309.273438 C 175.726562 309.128906 175.652344 308.949219 175.652344 308.742188 C 175.652344 308.53125 175.726562 308.355469 175.875 308.207031 C 176.023438 308.058594 176.199219 307.984375 176.410156 307.984375 C 176.621094 307.984375 176.800781 308.058594 176.949219 308.207031 C 177.097656 308.351562 177.171875 308.53125 177.171875 308.738281 C 177.167969 308.949219 177.09375 309.125 176.949219 309.273438 C 176.800781 309.417969 176.621094 309.492188 176.414062 309.496094 Z M 186.945312 304.632812 C 187.15625 304.632812 187.332031 304.707031 187.480469 304.855469 C 187.628906 305.003906 187.703125 305.179688 187.703125 305.386719 C 187.703125 305.59375 187.628906 305.773438 187.480469 305.921875 C 187.332031 306.066406 187.15625 306.140625 186.945312 306.140625 C 186.738281 306.140625 186.558594 306.066406 186.410156 305.921875 C 186.261719 305.773438 186.1875 305.59375 186.1875 305.386719 C 186.191406 305.179688 186.265625 305.003906 186.410156 304.855469 C 186.558594 304.707031 186.738281 304.636719 186.945312 304.632812 Z M 158.632812 293.496094 C 158.632812 292.992188 158.726562 292.5 158.914062 292.03125 C 159.101562 291.558594 159.371094 291.140625 159.71875 290.769531 C 160.066406 290.398438 160.472656 290.105469 160.933594 289.890625 C 161.394531 289.675781 161.878906 289.550781 162.390625 289.519531 L 163.027344 289.472656 L 163.027344 288.835938 C 163.027344 288.179688 163.132812 287.542969 163.339844 286.917969 C 163.550781 286.296875 163.851562 285.722656 164.25 285.199219 C 164.648438 284.675781 165.117188 284.226562 165.664062 283.855469 C 166.207031 283.484375 166.796875 283.207031 167.429688 283.027344 C 168.066406 282.847656 168.710938 282.773438 169.371094 282.800781 C 170.03125 282.832031 170.667969 282.964844 171.285156 283.199219 C 171.902344 283.433594 172.464844 283.761719 172.972656 284.179688 C 173.480469 284.597656 173.910156 285.085938 174.257812 285.644531 L 174.597656 286.179688 L 175.15625 285.878906 C 175.65625 285.609375 176.191406 285.472656 176.757812 285.476562 C 177.324219 285.476562 177.859375 285.609375 178.355469 285.875 C 178.855469 286.140625 179.261719 286.507812 179.574219 286.976562 L 179.851562 287.394531 L 180.332031 287.25 C 180.585938 287.175781 180.839844 287.160156 181.101562 287.203125 C 181.359375 287.25 181.597656 287.351562 181.808594 287.507812 C 182.019531 287.664062 182.183594 287.859375 182.304688 288.09375 C 182.421875 288.328125 182.480469 288.574219 182.480469 288.835938 L 182.480469 289.511719 L 183.699219 289.511719 C 183.960938 289.511719 184.222656 289.535156 184.480469 289.585938 C 184.738281 289.636719 184.988281 289.714844 185.230469 289.8125 C 185.476562 289.914062 185.707031 290.035156 185.925781 290.183594 C 186.144531 290.328125 186.347656 290.492188 186.53125 290.679688 C 186.71875 290.863281 186.886719 291.066406 187.03125 291.28125 C 187.175781 291.5 187.300781 291.730469 187.402344 291.972656 C 187.503906 292.214844 187.578125 292.460938 187.628906 292.71875 C 187.679688 292.976562 187.707031 293.234375 187.707031 293.496094 C 187.707031 293.757812 187.679688 294.019531 187.628906 294.273438 C 187.578125 294.53125 187.503906 294.78125 187.402344 295.023438 C 187.300781 295.265625 187.175781 295.496094 187.03125 295.710938 C 186.886719 295.929688 186.71875 296.132812 186.53125 296.316406 C 186.347656 296.503906 186.144531 296.667969 185.925781 296.8125 C 185.707031 296.957031 185.476562 297.082031 185.230469 297.179688 C 184.988281 297.28125 184.738281 297.355469 184.480469 297.410156 C 184.222656 297.460938 183.960938 297.484375 183.699219 297.484375 L 162.640625 297.484375 C 162.378906 297.484375 162.117188 297.457031 161.859375 297.40625 C 161.601562 297.355469 161.351562 297.28125 161.109375 297.179688 C 160.863281 297.078125 160.632812 296.957031 160.414062 296.8125 C 160.195312 296.664062 159.992188 296.5 159.808594 296.316406 C 159.621094 296.128906 159.457031 295.929688 159.308594 295.710938 C 159.164062 295.492188 159.039062 295.265625 158.9375 295.023438 C 158.835938 294.78125 158.761719 294.53125 158.710938 294.273438 C 158.65625 294.019531 158.632812 293.757812 158.632812 293.496094 Z M 158.632812 293.496094 "/></g><g style="fill:#000000;fill-opacity:1;"><g transform="translate(163.896061, 296.325948)"><path style="stroke:none" d="M 5.859375 0 L 5.28125 -1.890625 L 2.390625 -1.890625 L 1.8125 0 L 0 0 L 2.796875 -7.96875 L 4.859375 -7.96875 L 7.671875 0 Z M 4.890625 -3.296875 C 4.347656 -5.015625 4.046875 -5.984375 3.984375 -6.203125 C 3.921875 -6.429688 3.875 -6.609375 3.84375 -6.734375 C 3.71875 -6.273438 3.375 -5.128906 2.8125 -3.296875 Z M 4.890625 -3.296875 "/></g></g><g style="fill:#000000;fill-opacity:1;"><g transform="translate(171.570326, 296.325948)"><path style="stroke:none" d="M 2.6875 -4.203125 L 3.234375 -4.203125 C 3.753906 -4.203125 4.140625 -4.300781 4.390625 -4.5 C 4.648438 -4.707031 4.78125 -5.007812 4.78125 -5.40625 C 4.78125 -5.800781 4.671875 -6.09375 4.453125 -6.28125 C 4.242188 -6.46875 3.910156 -6.5625 3.453125 -6.5625 L 2.6875 -6.5625 Z M 6.484375 -5.46875 C 6.484375 -4.613281 6.21875 -3.957031 5.6875 -3.5 C 5.15625 -3.050781 4.394531 -2.828125 3.40625 -2.828125 L 2.6875 -2.828125 L 2.6875 0 L 1 0 L 1 -7.9375 L 3.53125 -7.9375 C 4.5 -7.9375 5.234375 -7.726562 5.734375 -7.3125 C 6.234375 -6.90625 6.484375 -6.289062 6.484375 -5.46875 Z M 6.484375 -5.46875 "/></g></g><g style="fill:#000000;fill-opacity:1;"><g transform="translate(178.554826, 296.325948)"><path style="stroke:none" d="M 1 0 L 1 -7.9375 L 2.6875 -7.9375 L 2.6875 0 Z M 1 0 "/></g></g></g></svg>