<svg xmlns="http://www.w3.org/2000/svg" xmlns:xlink="http://www.w3.org/1999/xlink" width="803" zoomAndPan="magnify" viewBox="0 0 602.25 242.999999" height="324" preserveAspectRatio="xMidYMid meet" version="1.2"><defs><clipPath id="9b8ffe105c"><path d="M 178.933594 0.152344 L 421.628906 0.152344 L 421.628906 242.847656 L 178.933594 242.847656 Z M 178.933594 0.152344 "/></clipPath><clipPath id="dc7ee6a574"><path d="M 300.28125 0.152344 C 233.261719 0.152344 178.933594 54.480469 178.933594 121.5 C 178.933594 188.519531 233.261719 242.847656 300.28125 242.847656 C 367.300781 242.847656 421.628906 188.519531 421.628906 121.5 C 421.628906 54.480469 367.300781 0.152344 300.28125 0.152344 Z M 300.28125 0.152344 "/></clipPath><clipPath id="e12efd0639"><path d="M 168.359375 82.691406 L 244.832031 82.691406 L 244.832031 159.164062 L 168.359375 159.164062 Z M 168.359375 82.691406 "/></clipPath><clipPath id="d2d01f7fa8"><path d="M 206.59375 82.691406 C 185.476562 82.691406 168.359375 99.808594 168.359375 120.925781 C 168.359375 142.042969 185.476562 159.164062 206.59375 159.164062 C 227.710938 159.164062 244.832031 142.042969 244.832031 120.925781 C 244.832031 99.808594 227.710938 82.691406 206.59375 82.691406 Z M 206.59375 82.691406 "/></clipPath></defs><g id="76506d7f8c"><g clip-rule="nonzero" clip-path="url(#9b8ffe105c)"><g clip-rule="nonzero" clip-path="url(#dc7ee6a574)"><path style=" stroke:none;fill-rule:nonzero;fill:#f5ba27;fill-opacity:1;" d="M 178.933594 0.152344 L 421.628906 0.152344 L 421.628906 242.847656 L 178.933594 242.847656 Z M 178.933594 0.152344 "/></g></g><g style="fill:#000000;fill-opacity:1;"><g transform="translate(87.309082, 158.286127)"><path style="stroke:none" d="M 76.546875 -74.53125 L 50.109375 0 L 27.390625 0 L 0.953125 -74.53125 L 20.28125 -74.53125 L 38.75 -18.265625 L 57.328125 -74.53125 Z M 76.546875 -74.53125 "/></g></g><g style="fill:#000000;fill-opacity:1;"><g transform="translate(164.8102, 158.286127)"><path style="stroke:none" d="M 41.828125 0.75 C 34.828125 0.75 28.40625 -0.878906 22.5625 -4.140625 C 16.71875 -7.398438 12.078125 -11.945312 8.640625 -17.78125 C 5.210938 -23.625 3.5 -30.191406 3.5 -37.484375 C 3.5 -44.773438 5.210938 -51.320312 8.640625 -57.125 C 12.078125 -62.925781 16.71875 -67.453125 22.5625 -70.703125 C 28.40625 -73.960938 34.828125 -75.59375 41.828125 -75.59375 C 48.835938 -75.59375 55.257812 -73.960938 61.09375 -70.703125 C 66.9375 -67.453125 71.539062 -62.925781 74.90625 -57.125 C 78.269531 -51.320312 79.953125 -44.773438 79.953125 -37.484375 C 79.953125 -30.191406 78.25 -23.625 74.84375 -17.78125 C 71.445312 -11.945312 66.847656 -7.398438 61.046875 -4.140625 C 55.242188 -0.878906 48.835938 0.75 41.828125 0.75 Z M 41.828125 -15.8125 C 47.773438 -15.8125 52.535156 -17.789062 56.109375 -21.75 C 59.679688 -25.71875 61.46875 -30.960938 61.46875 -37.484375 C 61.46875 -44.066406 59.679688 -49.320312 56.109375 -53.25 C 52.535156 -57.175781 47.773438 -59.140625 41.828125 -59.140625 C 35.816406 -59.140625 31.019531 -57.191406 27.4375 -53.296875 C 23.863281 -49.398438 22.078125 -44.128906 22.078125 -37.484375 C 22.078125 -30.898438 23.863281 -25.640625 27.4375 -21.703125 C 31.019531 -17.773438 35.816406 -15.8125 41.828125 -15.8125 Z M 41.828125 -15.8125 "/></g></g><g style="fill:#000000;fill-opacity:1;"><g transform="translate(248.2566, 158.286127)"><path style="stroke:none" d="M 44.59375 0 L 29.09375 -28.140625 L 24.734375 -28.140625 L 24.734375 0 L 6.578125 0 L 6.578125 -74.53125 L 37.046875 -74.53125 C 42.921875 -74.53125 47.925781 -73.503906 52.0625 -71.453125 C 56.207031 -69.398438 59.304688 -66.585938 61.359375 -63.015625 C 63.421875 -59.441406 64.453125 -55.457031 64.453125 -51.0625 C 64.453125 -46.113281 63.050781 -41.691406 60.25 -37.796875 C 57.457031 -33.898438 53.335938 -31.140625 47.890625 -29.515625 L 65.078125 0 Z M 24.734375 -40.984375 L 36 -40.984375 C 39.320312 -40.984375 41.8125 -41.796875 43.46875 -43.421875 C 45.132812 -45.046875 45.96875 -47.347656 45.96875 -50.328125 C 45.96875 -53.160156 45.132812 -55.390625 43.46875 -57.015625 C 41.8125 -58.640625 39.320312 -59.453125 36 -59.453125 L 24.734375 -59.453125 Z M 24.734375 -40.984375 "/></g></g><g style="fill:#000000;fill-opacity:1;"><g transform="translate(317.476761, 158.286127)"><path style="stroke:none" d="M 60.203125 -74.53125 L 60.203125 -59.984375 L 40.453125 -59.984375 L 40.453125 0 L 22.296875 0 L 22.296875 -59.984375 L 2.546875 -59.984375 L 2.546875 -74.53125 Z M 60.203125 -74.53125 "/></g></g><g style="fill:#000000;fill-opacity:1;"><g transform="translate(380.220837, 158.286127)"><path style="stroke:none" d="M 24.734375 -59.984375 L 24.734375 -44.90625 L 49.046875 -44.90625 L 49.046875 -30.890625 L 24.734375 -30.890625 L 24.734375 -14.546875 L 52.234375 -14.546875 L 52.234375 0 L 6.578125 0 L 6.578125 -74.53125 L 52.234375 -74.53125 L 52.234375 -59.984375 Z M 24.734375 -59.984375 "/></g></g><g style="fill:#000000;fill-opacity:1;"><g transform="translate(437.65657, 158.286127)"><path style="stroke:none" d="M 52.234375 0 L 37.046875 -22.828125 L 23.671875 0 L 3.078125 0 L 26.96875 -37.90625 L 2.546875 -74.53125 L 23.671875 -74.53125 L 38.640625 -52.03125 L 51.8125 -74.53125 L 72.40625 -74.53125 L 48.734375 -36.953125 L 73.359375 0 Z M 52.234375 0 "/></g></g><g clip-rule="nonzero" clip-path="url(#e12efd0639)"><g clip-rule="nonzero" clip-path="url(#d2d01f7fa8)"><path style=" stroke:none;fill-rule:nonzero;fill:#000000;fill-opacity:1;" d="M 168.359375 82.691406 L 244.832031 82.691406 L 244.832031 159.164062 L 168.359375 159.164062 Z M 168.359375 82.691406 "/></g></g><path style="fill:none;stroke-width:9;stroke-linecap:round;stroke-linejoin:miter;stroke:#fbbf24;stroke-opacity:1;stroke-miterlimit:4;" d="M 4.498585 4.501463 L 36.754789 4.501463 " transform="matrix(0.00000000129945,0.744527,-0.744527,0.00000000129945,222.093649,121.502243)"/><path style="fill:none;stroke-width:9;stroke-linecap:round;stroke-linejoin:miter;stroke:#fbbf24;stroke-opacity:1;stroke-miterlimit:4;" d="M 4.501041 4.497623 L 36.024626 4.497624 " transform="matrix(0.00000000130737,0.749067,-0.749067,0.00000000130737,209.962772,125.464355)"/><path style="fill:none;stroke-width:9;stroke-linecap:round;stroke-linejoin:miter;stroke:#fbbf24;stroke-opacity:1;stroke-miterlimit:4;" d="M 4.498 4.497481 L 24.769477 4.497481 " transform="matrix(0.0000000012955,0.742268,-0.742268,0.0000000012955,234.225056,120.926902)"/><path style="fill:none;stroke-width:9;stroke-linecap:round;stroke-linejoin:miter;stroke:#fbbf24;stroke-opacity:1;stroke-miterlimit:4;" d="M 4.499262 4.500431 L 36.755467 4.500431 " transform="matrix(0,-0.744527,0.744527,0,191.059462,120.924043)"/><path style="fill:none;stroke-width:9;stroke-linecap:round;stroke-linejoin:miter;stroke:#fbbf24;stroke-opacity:1;stroke-miterlimit:4;" d="M 4.499713 4.498266 L 34.406721 4.5009 " transform="matrix(-0.000849661,-0.749067,0.749067,-0.000849661,203.224166,115.75722)"/><path style="fill:none;stroke-width:9;stroke-linecap:round;stroke-linejoin:miter;stroke:#fbbf24;stroke-opacity:1;stroke-miterlimit:4;" d="M 4.498689 4.502593 L 24.764904 4.502593 " transform="matrix(0,-0.742268,0.742268,0,178.931306,121.499391)"/><g style="fill:#000000;fill-opacity:1;"><g transform="translate(248.982623, 181.573219)"><path style="stroke:none" d="M 2.34375 -3.84375 L 2.34375 0 L 1.265625 0 L 1.265625 -9.234375 L 3.796875 -9.234375 C 4.929688 -9.234375 5.769531 -9.015625 6.3125 -8.578125 C 6.851562 -8.148438 7.125 -7.5 7.125 -6.625 C 7.125 -5.40625 6.503906 -4.582031 5.265625 -4.15625 L 7.78125 0 L 6.5 0 L 4.265625 -3.84375 Z M 2.34375 -4.765625 L 3.8125 -4.765625 C 4.570312 -4.765625 5.128906 -4.914062 5.484375 -5.21875 C 5.835938 -5.519531 6.015625 -5.96875 6.015625 -6.5625 C 6.015625 -7.175781 5.832031 -7.617188 5.46875 -7.890625 C 5.113281 -8.160156 4.535156 -8.296875 3.734375 -8.296875 L 2.34375 -8.296875 Z M 2.34375 -4.765625 "/></g></g><g style="fill:#000000;fill-opacity:1;"><g transform="translate(256.973405, 181.573219)"><path style="stroke:none" d="M 4.03125 0.125 C 3.007812 0.125 2.203125 -0.1875 1.609375 -0.8125 C 1.015625 -1.4375 0.71875 -2.300781 0.71875 -3.40625 C 0.71875 -4.519531 0.992188 -5.40625 1.546875 -6.0625 C 2.097656 -6.71875 2.835938 -7.046875 3.765625 -7.046875 C 4.628906 -7.046875 5.3125 -6.757812 5.8125 -6.1875 C 6.320312 -5.625 6.578125 -4.875 6.578125 -3.9375 L 6.578125 -3.265625 L 1.8125 -3.265625 C 1.832031 -2.453125 2.035156 -1.835938 2.421875 -1.421875 C 2.816406 -1.003906 3.367188 -0.796875 4.078125 -0.796875 C 4.816406 -0.796875 5.550781 -0.945312 6.28125 -1.25 L 6.28125 -0.328125 C 5.914062 -0.160156 5.566406 -0.046875 5.234375 0.015625 C 4.898438 0.0859375 4.5 0.125 4.03125 0.125 Z M 3.75 -6.171875 C 3.195312 -6.171875 2.753906 -5.988281 2.421875 -5.625 C 2.085938 -5.257812 1.894531 -4.757812 1.84375 -4.125 L 5.453125 -4.125 C 5.453125 -4.78125 5.304688 -5.285156 5.015625 -5.640625 C 4.722656 -5.992188 4.300781 -6.171875 3.75 -6.171875 Z M 3.75 -6.171875 "/></g></g><g style="fill:#000000;fill-opacity:1;"><g transform="translate(264.225706, 181.573219)"><path style="stroke:none" d="M 2.625 0 L 0 -6.921875 L 1.125 -6.921875 L 2.609375 -2.8125 C 2.953125 -1.851562 3.148438 -1.234375 3.203125 -0.953125 L 3.265625 -0.953125 C 3.304688 -1.171875 3.445312 -1.628906 3.6875 -2.328125 C 3.9375 -3.035156 4.492188 -4.566406 5.359375 -6.921875 L 6.484375 -6.921875 L 3.859375 0 Z M 2.625 0 "/></g></g><g style="fill:#000000;fill-opacity:1;"><g transform="translate(270.701648, 181.573219)"><path style="stroke:none" d="M 7.09375 -3.46875 C 7.09375 -2.34375 6.804688 -1.460938 6.234375 -0.828125 C 5.660156 -0.191406 4.875 0.125 3.875 0.125 C 3.257812 0.125 2.710938 -0.0195312 2.234375 -0.3125 C 1.753906 -0.601562 1.378906 -1.019531 1.109375 -1.5625 C 0.847656 -2.101562 0.71875 -2.738281 0.71875 -3.46875 C 0.71875 -4.59375 1 -5.46875 1.5625 -6.09375 C 2.132812 -6.726562 2.921875 -7.046875 3.921875 -7.046875 C 4.890625 -7.046875 5.660156 -6.722656 6.234375 -6.078125 C 6.804688 -5.429688 7.09375 -4.5625 7.09375 -3.46875 Z M 1.8125 -3.46875 C 1.8125 -2.582031 1.988281 -1.90625 2.34375 -1.4375 C 2.695312 -0.976562 3.21875 -0.75 3.90625 -0.75 C 4.59375 -0.75 5.113281 -0.976562 5.46875 -1.4375 C 5.820312 -1.90625 6 -2.582031 6 -3.46875 C 6 -4.34375 5.820312 -5.007812 5.46875 -5.46875 C 5.113281 -5.925781 4.585938 -6.15625 3.890625 -6.15625 C 3.203125 -6.15625 2.679688 -5.929688 2.328125 -5.484375 C 1.984375 -5.035156 1.8125 -4.363281 1.8125 -3.46875 Z M 1.8125 -3.46875 "/></g></g><g style="fill:#000000;fill-opacity:1;"><g transform="translate(278.50939, 181.573219)"><path style="stroke:none" d="M 2.15625 0 L 1.109375 0 L 1.109375 -9.828125 L 2.15625 -9.828125 Z M 2.15625 0 "/></g></g><g style="fill:#000000;fill-opacity:1;"><g transform="translate(281.778921, 181.573219)"><path style="stroke:none" d="M 2.09375 -6.921875 L 2.09375 -2.4375 C 2.09375 -1.863281 2.222656 -1.4375 2.484375 -1.15625 C 2.742188 -0.882812 3.144531 -0.75 3.6875 -0.75 C 4.414062 -0.75 4.945312 -0.945312 5.28125 -1.34375 C 5.613281 -1.738281 5.78125 -2.382812 5.78125 -3.28125 L 5.78125 -6.921875 L 6.828125 -6.921875 L 6.828125 0 L 5.96875 0 L 5.8125 -0.921875 L 5.75 -0.921875 C 5.539062 -0.585938 5.242188 -0.328125 4.859375 -0.140625 C 4.484375 0.0351562 4.050781 0.125 3.5625 0.125 C 2.71875 0.125 2.082031 -0.0703125 1.65625 -0.46875 C 1.238281 -0.875 1.03125 -1.515625 1.03125 -2.390625 L 1.03125 -6.921875 Z M 2.09375 -6.921875 "/></g></g><g style="fill:#000000;fill-opacity:1;"><g transform="translate(289.7129, 181.573219)"><path style="stroke:none" d="M 3.34375 -0.734375 C 3.53125 -0.734375 3.707031 -0.75 3.875 -0.78125 C 4.050781 -0.8125 4.191406 -0.835938 4.296875 -0.859375 L 4.296875 -0.0625 C 4.179688 -0.0078125 4.015625 0.03125 3.796875 0.0625 C 3.578125 0.101562 3.378906 0.125 3.203125 0.125 C 1.859375 0.125 1.1875 -0.578125 1.1875 -1.984375 L 1.1875 -6.109375 L 0.203125 -6.109375 L 0.203125 -6.609375 L 1.1875 -7.046875 L 1.625 -8.53125 L 2.234375 -8.53125 L 2.234375 -6.921875 L 4.25 -6.921875 L 4.25 -6.109375 L 2.234375 -6.109375 L 2.234375 -2.03125 C 2.234375 -1.613281 2.332031 -1.289062 2.53125 -1.0625 C 2.726562 -0.84375 3 -0.734375 3.34375 -0.734375 Z M 3.34375 -0.734375 "/></g></g><g style="fill:#000000;fill-opacity:1;"><g transform="translate(294.276359, 181.573219)"><path style="stroke:none" d="M 2.15625 0 L 1.109375 0 L 1.109375 -6.921875 L 2.15625 -6.921875 Z M 1.015625 -8.796875 C 1.015625 -9.035156 1.070312 -9.210938 1.1875 -9.328125 C 1.3125 -9.441406 1.460938 -9.5 1.640625 -9.5 C 1.804688 -9.5 1.953125 -9.441406 2.078125 -9.328125 C 2.203125 -9.210938 2.265625 -9.035156 2.265625 -8.796875 C 2.265625 -8.566406 2.203125 -8.390625 2.078125 -8.265625 C 1.953125 -8.148438 1.804688 -8.09375 1.640625 -8.09375 C 1.460938 -8.09375 1.3125 -8.148438 1.1875 -8.265625 C 1.070312 -8.390625 1.015625 -8.566406 1.015625 -8.796875 Z M 1.015625 -8.796875 "/></g></g><g style="fill:#000000;fill-opacity:1;"><g transform="translate(297.545889, 181.573219)"><path style="stroke:none" d="M 7.09375 -3.46875 C 7.09375 -2.34375 6.804688 -1.460938 6.234375 -0.828125 C 5.660156 -0.191406 4.875 0.125 3.875 0.125 C 3.257812 0.125 2.710938 -0.0195312 2.234375 -0.3125 C 1.753906 -0.601562 1.378906 -1.019531 1.109375 -1.5625 C 0.847656 -2.101562 0.71875 -2.738281 0.71875 -3.46875 C 0.71875 -4.59375 1 -5.46875 1.5625 -6.09375 C 2.132812 -6.726562 2.921875 -7.046875 3.921875 -7.046875 C 4.890625 -7.046875 5.660156 -6.722656 6.234375 -6.078125 C 6.804688 -5.429688 7.09375 -4.5625 7.09375 -3.46875 Z M 1.8125 -3.46875 C 1.8125 -2.582031 1.988281 -1.90625 2.34375 -1.4375 C 2.695312 -0.976562 3.21875 -0.75 3.90625 -0.75 C 4.59375 -0.75 5.113281 -0.976562 5.46875 -1.4375 C 5.820312 -1.90625 6 -2.582031 6 -3.46875 C 6 -4.34375 5.820312 -5.007812 5.46875 -5.46875 C 5.113281 -5.925781 4.585938 -6.15625 3.890625 -6.15625 C 3.203125 -6.15625 2.679688 -5.929688 2.328125 -5.484375 C 1.984375 -5.035156 1.8125 -4.363281 1.8125 -3.46875 Z M 1.8125 -3.46875 "/></g></g><g style="fill:#000000;fill-opacity:1;"><g transform="translate(305.353632, 181.573219)"><path style="stroke:none" d="M 5.84375 0 L 5.84375 -4.484375 C 5.84375 -5.046875 5.710938 -5.460938 5.453125 -5.734375 C 5.203125 -6.015625 4.800781 -6.15625 4.25 -6.15625 C 3.53125 -6.15625 3 -5.957031 2.65625 -5.5625 C 2.320312 -5.175781 2.15625 -4.53125 2.15625 -3.625 L 2.15625 0 L 1.109375 0 L 1.109375 -6.921875 L 1.96875 -6.921875 L 2.140625 -5.96875 L 2.1875 -5.96875 C 2.40625 -6.3125 2.707031 -6.578125 3.09375 -6.765625 C 3.476562 -6.953125 3.910156 -7.046875 4.390625 -7.046875 C 5.222656 -7.046875 5.847656 -6.84375 6.265625 -6.4375 C 6.679688 -6.039062 6.890625 -5.398438 6.890625 -4.515625 L 6.890625 0 Z M 5.84375 0 "/></g></g><g style="fill:#000000;fill-opacity:1;"><g transform="translate(313.287611, 181.573219)"><path style="stroke:none" d="M 2.15625 0 L 1.109375 0 L 1.109375 -6.921875 L 2.15625 -6.921875 Z M 1.015625 -8.796875 C 1.015625 -9.035156 1.070312 -9.210938 1.1875 -9.328125 C 1.3125 -9.441406 1.460938 -9.5 1.640625 -9.5 C 1.804688 -9.5 1.953125 -9.441406 2.078125 -9.328125 C 2.203125 -9.210938 2.265625 -9.035156 2.265625 -8.796875 C 2.265625 -8.566406 2.203125 -8.390625 2.078125 -8.265625 C 1.953125 -8.148438 1.804688 -8.09375 1.640625 -8.09375 C 1.460938 -8.09375 1.3125 -8.148438 1.1875 -8.265625 C 1.070312 -8.390625 1.015625 -8.566406 1.015625 -8.796875 Z M 1.015625 -8.796875 "/></g></g><g style="fill:#000000;fill-opacity:1;"><g transform="translate(316.557141, 181.573219)"><path style="stroke:none" d="M 5.546875 0 L 0.515625 0 L 0.515625 -0.71875 L 4.296875 -6.109375 L 0.75 -6.109375 L 0.75 -6.921875 L 5.453125 -6.921875 L 5.453125 -6.109375 L 1.71875 -0.8125 L 5.546875 -0.8125 Z M 5.546875 0 "/></g></g><g style="fill:#000000;fill-opacity:1;"><g transform="translate(322.603878, 181.573219)"><path style="stroke:none" d="M 2.15625 0 L 1.109375 0 L 1.109375 -6.921875 L 2.15625 -6.921875 Z M 1.015625 -8.796875 C 1.015625 -9.035156 1.070312 -9.210938 1.1875 -9.328125 C 1.3125 -9.441406 1.460938 -9.5 1.640625 -9.5 C 1.804688 -9.5 1.953125 -9.441406 2.078125 -9.328125 C 2.203125 -9.210938 2.265625 -9.035156 2.265625 -8.796875 C 2.265625 -8.566406 2.203125 -8.390625 2.078125 -8.265625 C 1.953125 -8.148438 1.804688 -8.09375 1.640625 -8.09375 C 1.460938 -8.09375 1.3125 -8.148438 1.1875 -8.265625 C 1.070312 -8.390625 1.015625 -8.566406 1.015625 -8.796875 Z M 1.015625 -8.796875 "/></g></g><g style="fill:#000000;fill-opacity:1;"><g transform="translate(325.873408, 181.573219)"><path style="stroke:none" d="M 5.84375 0 L 5.84375 -4.484375 C 5.84375 -5.046875 5.710938 -5.460938 5.453125 -5.734375 C 5.203125 -6.015625 4.800781 -6.15625 4.25 -6.15625 C 3.53125 -6.15625 3 -5.957031 2.65625 -5.5625 C 2.320312 -5.175781 2.15625 -4.53125 2.15625 -3.625 L 2.15625 0 L 1.109375 0 L 1.109375 -6.921875 L 1.96875 -6.921875 L 2.140625 -5.96875 L 2.1875 -5.96875 C 2.40625 -6.3125 2.707031 -6.578125 3.09375 -6.765625 C 3.476562 -6.953125 3.910156 -7.046875 4.390625 -7.046875 C 5.222656 -7.046875 5.847656 -6.84375 6.265625 -6.4375 C 6.679688 -6.039062 6.890625 -5.398438 6.890625 -4.515625 L 6.890625 0 Z M 5.84375 0 "/></g></g><g style="fill:#000000;fill-opacity:1;"><g transform="translate(333.807387, 181.573219)"><path style="stroke:none" d="M 6.78125 -6.921875 L 6.78125 -6.265625 L 5.5 -6.109375 C 5.613281 -5.960938 5.71875 -5.769531 5.8125 -5.53125 C 5.90625 -5.289062 5.953125 -5.019531 5.953125 -4.71875 C 5.953125 -4.039062 5.71875 -3.5 5.25 -3.09375 C 4.789062 -2.695312 4.15625 -2.5 3.34375 -2.5 C 3.132812 -2.5 2.941406 -2.515625 2.765625 -2.546875 C 2.316406 -2.304688 2.09375 -2.007812 2.09375 -1.65625 C 2.09375 -1.46875 2.171875 -1.328125 2.328125 -1.234375 C 2.484375 -1.140625 2.753906 -1.09375 3.140625 -1.09375 L 4.359375 -1.09375 C 5.109375 -1.09375 5.679688 -0.9375 6.078125 -0.625 C 6.484375 -0.3125 6.6875 0.144531 6.6875 0.75 C 6.6875 1.519531 6.378906 2.101562 5.765625 2.5 C 5.148438 2.90625 4.253906 3.109375 3.078125 3.109375 C 2.171875 3.109375 1.472656 2.9375 0.984375 2.59375 C 0.492188 2.257812 0.25 1.785156 0.25 1.171875 C 0.25 0.753906 0.382812 0.390625 0.65625 0.078125 C 0.925781 -0.222656 1.300781 -0.429688 1.78125 -0.546875 C 1.601562 -0.617188 1.453125 -0.738281 1.328125 -0.90625 C 1.210938 -1.082031 1.15625 -1.28125 1.15625 -1.5 C 1.15625 -1.75 1.222656 -1.96875 1.359375 -2.15625 C 1.492188 -2.351562 1.707031 -2.539062 2 -2.71875 C 1.644531 -2.863281 1.351562 -3.113281 1.125 -3.46875 C 0.90625 -3.820312 0.796875 -4.226562 0.796875 -4.6875 C 0.796875 -5.4375 1.019531 -6.015625 1.46875 -6.421875 C 1.925781 -6.835938 2.570312 -7.046875 3.40625 -7.046875 C 3.769531 -7.046875 4.097656 -7.003906 4.390625 -6.921875 Z M 1.25 1.15625 C 1.25 1.53125 1.40625 1.816406 1.71875 2.015625 C 2.039062 2.210938 2.5 2.3125 3.09375 2.3125 C 3.96875 2.3125 4.613281 2.175781 5.03125 1.90625 C 5.457031 1.644531 5.671875 1.289062 5.671875 0.84375 C 5.671875 0.46875 5.554688 0.207031 5.328125 0.0625 C 5.097656 -0.0820312 4.664062 -0.15625 4.03125 -0.15625 L 2.765625 -0.15625 C 2.285156 -0.15625 1.910156 -0.0390625 1.640625 0.1875 C 1.378906 0.414062 1.25 0.738281 1.25 1.15625 Z M 1.828125 -4.703125 C 1.828125 -4.222656 1.960938 -3.859375 2.234375 -3.609375 C 2.503906 -3.359375 2.882812 -3.234375 3.375 -3.234375 C 4.40625 -3.234375 4.921875 -3.726562 4.921875 -4.71875 C 4.921875 -5.757812 4.398438 -6.28125 3.359375 -6.28125 C 2.867188 -6.28125 2.488281 -6.144531 2.21875 -5.875 C 1.957031 -5.613281 1.828125 -5.222656 1.828125 -4.703125 Z M 1.828125 -4.703125 "/></g></g><g style="fill:#000000;fill-opacity:1;"><g transform="translate(340.889265, 181.573219)"><path style="stroke:none" d=""/></g></g><g style="fill:#000000;fill-opacity:1;"><g transform="translate(344.247161, 181.573219)"><path style="stroke:none" d="M 1.265625 -9.234375 L 3.875 -9.234375 C 5.101562 -9.234375 5.988281 -9.050781 6.53125 -8.6875 C 7.082031 -8.320312 7.359375 -7.742188 7.359375 -6.953125 C 7.359375 -6.398438 7.203125 -5.945312 6.890625 -5.59375 C 6.585938 -5.238281 6.144531 -5.007812 5.5625 -4.90625 L 5.5625 -4.84375 C 6.96875 -4.601562 7.671875 -3.863281 7.671875 -2.625 C 7.671875 -1.800781 7.390625 -1.15625 6.828125 -0.6875 C 6.273438 -0.226562 5.492188 0 4.484375 0 L 1.265625 0 Z M 2.34375 -5.28125 L 4.109375 -5.28125 C 4.867188 -5.28125 5.414062 -5.398438 5.75 -5.640625 C 6.082031 -5.878906 6.25 -6.28125 6.25 -6.84375 C 6.25 -7.363281 6.0625 -7.738281 5.6875 -7.96875 C 5.320312 -8.195312 4.734375 -8.3125 3.921875 -8.3125 L 2.34375 -8.3125 Z M 2.34375 -4.375 L 2.34375 -0.921875 L 4.265625 -0.921875 C 5.015625 -0.921875 5.578125 -1.0625 5.953125 -1.34375 C 6.328125 -1.632812 6.515625 -2.085938 6.515625 -2.703125 C 6.515625 -3.273438 6.320312 -3.695312 5.9375 -3.96875 C 5.550781 -4.238281 4.96875 -4.375 4.1875 -4.375 Z M 2.34375 -4.375 "/></g></g><g style="fill:#000000;fill-opacity:1;"><g transform="translate(352.622969, 181.573219)"><path style="stroke:none" d="M 2.09375 -6.921875 L 2.09375 -2.4375 C 2.09375 -1.863281 2.222656 -1.4375 2.484375 -1.15625 C 2.742188 -0.882812 3.144531 -0.75 3.6875 -0.75 C 4.414062 -0.75 4.945312 -0.945312 5.28125 -1.34375 C 5.613281 -1.738281 5.78125 -2.382812 5.78125 -3.28125 L 5.78125 -6.921875 L 6.828125 -6.921875 L 6.828125 0 L 5.96875 0 L 5.8125 -0.921875 L 5.75 -0.921875 C 5.539062 -0.585938 5.242188 -0.328125 4.859375 -0.140625 C 4.484375 0.0351562 4.050781 0.125 3.5625 0.125 C 2.71875 0.125 2.082031 -0.0703125 1.65625 -0.46875 C 1.238281 -0.875 1.03125 -1.515625 1.03125 -2.390625 L 1.03125 -6.921875 Z M 2.09375 -6.921875 "/></g></g><g style="fill:#000000;fill-opacity:1;"><g transform="translate(360.556948, 181.573219)"><path style="stroke:none" d="M 5.578125 -1.890625 C 5.578125 -1.242188 5.335938 -0.742188 4.859375 -0.390625 C 4.378906 -0.046875 3.707031 0.125 2.84375 0.125 C 1.914062 0.125 1.195312 -0.0195312 0.6875 -0.3125 L 0.6875 -1.28125 C 1.019531 -1.113281 1.375 -0.976562 1.75 -0.875 C 2.132812 -0.78125 2.503906 -0.734375 2.859375 -0.734375 C 3.410156 -0.734375 3.832031 -0.820312 4.125 -1 C 4.414062 -1.175781 4.5625 -1.441406 4.5625 -1.796875 C 4.5625 -2.066406 4.441406 -2.296875 4.203125 -2.484375 C 3.972656 -2.679688 3.519531 -2.910156 2.84375 -3.171875 C 2.195312 -3.410156 1.738281 -3.617188 1.46875 -3.796875 C 1.195312 -3.972656 0.992188 -4.175781 0.859375 -4.40625 C 0.734375 -4.632812 0.671875 -4.90625 0.671875 -5.21875 C 0.671875 -5.789062 0.898438 -6.238281 1.359375 -6.5625 C 1.816406 -6.882812 2.445312 -7.046875 3.25 -7.046875 C 3.988281 -7.046875 4.71875 -6.894531 5.4375 -6.59375 L 5.0625 -5.75 C 4.363281 -6.03125 3.734375 -6.171875 3.171875 -6.171875 C 2.671875 -6.171875 2.296875 -6.09375 2.046875 -5.9375 C 1.796875 -5.78125 1.671875 -5.566406 1.671875 -5.296875 C 1.671875 -5.109375 1.71875 -4.945312 1.8125 -4.8125 C 1.90625 -4.6875 2.054688 -4.5625 2.265625 -4.4375 C 2.472656 -4.320312 2.878906 -4.15625 3.484375 -3.9375 C 4.304688 -3.632812 4.859375 -3.332031 5.140625 -3.03125 C 5.429688 -2.726562 5.578125 -2.347656 5.578125 -1.890625 Z M 5.578125 -1.890625 "/></g></g><g style="fill:#000000;fill-opacity:1;"><g transform="translate(366.723613, 181.573219)"><path style="stroke:none" d="M 2.15625 0 L 1.109375 0 L 1.109375 -6.921875 L 2.15625 -6.921875 Z M 1.015625 -8.796875 C 1.015625 -9.035156 1.070312 -9.210938 1.1875 -9.328125 C 1.3125 -9.441406 1.460938 -9.5 1.640625 -9.5 C 1.804688 -9.5 1.953125 -9.441406 2.078125 -9.328125 C 2.203125 -9.210938 2.265625 -9.035156 2.265625 -8.796875 C 2.265625 -8.566406 2.203125 -8.390625 2.078125 -8.265625 C 1.953125 -8.148438 1.804688 -8.09375 1.640625 -8.09375 C 1.460938 -8.09375 1.3125 -8.148438 1.1875 -8.265625 C 1.070312 -8.390625 1.015625 -8.566406 1.015625 -8.796875 Z M 1.015625 -8.796875 "/></g></g><g style="fill:#000000;fill-opacity:1;"><g transform="translate(369.99315, 181.573219)"><path style="stroke:none" d="M 5.84375 0 L 5.84375 -4.484375 C 5.84375 -5.046875 5.710938 -5.460938 5.453125 -5.734375 C 5.203125 -6.015625 4.800781 -6.15625 4.25 -6.15625 C 3.53125 -6.15625 3 -5.957031 2.65625 -5.5625 C 2.320312 -5.175781 2.15625 -4.53125 2.15625 -3.625 L 2.15625 0 L 1.109375 0 L 1.109375 -6.921875 L 1.96875 -6.921875 L 2.140625 -5.96875 L 2.1875 -5.96875 C 2.40625 -6.3125 2.707031 -6.578125 3.09375 -6.765625 C 3.476562 -6.953125 3.910156 -7.046875 4.390625 -7.046875 C 5.222656 -7.046875 5.847656 -6.84375 6.265625 -6.4375 C 6.679688 -6.039062 6.890625 -5.398438 6.890625 -4.515625 L 6.890625 0 Z M 5.84375 0 "/></g></g><g style="fill:#000000;fill-opacity:1;"><g transform="translate(377.927129, 181.573219)"><path style="stroke:none" d="M 4.03125 0.125 C 3.007812 0.125 2.203125 -0.1875 1.609375 -0.8125 C 1.015625 -1.4375 0.71875 -2.300781 0.71875 -3.40625 C 0.71875 -4.519531 0.992188 -5.40625 1.546875 -6.0625 C 2.097656 -6.71875 2.835938 -7.046875 3.765625 -7.046875 C 4.628906 -7.046875 5.3125 -6.757812 5.8125 -6.1875 C 6.320312 -5.625 6.578125 -4.875 6.578125 -3.9375 L 6.578125 -3.265625 L 1.8125 -3.265625 C 1.832031 -2.453125 2.035156 -1.835938 2.421875 -1.421875 C 2.816406 -1.003906 3.367188 -0.796875 4.078125 -0.796875 C 4.816406 -0.796875 5.550781 -0.945312 6.28125 -1.25 L 6.28125 -0.328125 C 5.914062 -0.160156 5.566406 -0.046875 5.234375 0.015625 C 4.898438 0.0859375 4.5 0.125 4.03125 0.125 Z M 3.75 -6.171875 C 3.195312 -6.171875 2.753906 -5.988281 2.421875 -5.625 C 2.085938 -5.257812 1.894531 -4.757812 1.84375 -4.125 L 5.453125 -4.125 C 5.453125 -4.78125 5.304688 -5.285156 5.015625 -5.640625 C 4.722656 -5.992188 4.300781 -6.171875 3.75 -6.171875 Z M 3.75 -6.171875 "/></g></g><g style="fill:#000000;fill-opacity:1;"><g transform="translate(385.179417, 181.573219)"><path style="stroke:none" d="M 5.578125 -1.890625 C 5.578125 -1.242188 5.335938 -0.742188 4.859375 -0.390625 C 4.378906 -0.046875 3.707031 0.125 2.84375 0.125 C 1.914062 0.125 1.195312 -0.0195312 0.6875 -0.3125 L 0.6875 -1.28125 C 1.019531 -1.113281 1.375 -0.976562 1.75 -0.875 C 2.132812 -0.78125 2.503906 -0.734375 2.859375 -0.734375 C 3.410156 -0.734375 3.832031 -0.820312 4.125 -1 C 4.414062 -1.175781 4.5625 -1.441406 4.5625 -1.796875 C 4.5625 -2.066406 4.441406 -2.296875 4.203125 -2.484375 C 3.972656 -2.679688 3.519531 -2.910156 2.84375 -3.171875 C 2.195312 -3.410156 1.738281 -3.617188 1.46875 -3.796875 C 1.195312 -3.972656 0.992188 -4.175781 0.859375 -4.40625 C 0.734375 -4.632812 0.671875 -4.90625 0.671875 -5.21875 C 0.671875 -5.789062 0.898438 -6.238281 1.359375 -6.5625 C 1.816406 -6.882812 2.445312 -7.046875 3.25 -7.046875 C 3.988281 -7.046875 4.71875 -6.894531 5.4375 -6.59375 L 5.0625 -5.75 C 4.363281 -6.03125 3.734375 -6.171875 3.171875 -6.171875 C 2.671875 -6.171875 2.296875 -6.09375 2.046875 -5.9375 C 1.796875 -5.78125 1.671875 -5.566406 1.671875 -5.296875 C 1.671875 -5.109375 1.71875 -4.945312 1.8125 -4.8125 C 1.90625 -4.6875 2.054688 -4.5625 2.265625 -4.4375 C 2.472656 -4.320312 2.878906 -4.15625 3.484375 -3.9375 C 4.304688 -3.632812 4.859375 -3.332031 5.140625 -3.03125 C 5.429688 -2.726562 5.578125 -2.347656 5.578125 -1.890625 Z M 5.578125 -1.890625 "/></g></g><g style="fill:#000000;fill-opacity:1;"><g transform="translate(391.346082, 181.573219)"><path style="stroke:none" d="M 5.578125 -1.890625 C 5.578125 -1.242188 5.335938 -0.742188 4.859375 -0.390625 C 4.378906 -0.046875 3.707031 0.125 2.84375 0.125 C 1.914062 0.125 1.195312 -0.0195312 0.6875 -0.3125 L 0.6875 -1.28125 C 1.019531 -1.113281 1.375 -0.976562 1.75 -0.875 C 2.132812 -0.78125 2.503906 -0.734375 2.859375 -0.734375 C 3.410156 -0.734375 3.832031 -0.820312 4.125 -1 C 4.414062 -1.175781 4.5625 -1.441406 4.5625 -1.796875 C 4.5625 -2.066406 4.441406 -2.296875 4.203125 -2.484375 C 3.972656 -2.679688 3.519531 -2.910156 2.84375 -3.171875 C 2.195312 -3.410156 1.738281 -3.617188 1.46875 -3.796875 C 1.195312 -3.972656 0.992188 -4.175781 0.859375 -4.40625 C 0.734375 -4.632812 0.671875 -4.90625 0.671875 -5.21875 C 0.671875 -5.789062 0.898438 -6.238281 1.359375 -6.5625 C 1.816406 -6.882812 2.445312 -7.046875 3.25 -7.046875 C 3.988281 -7.046875 4.71875 -6.894531 5.4375 -6.59375 L 5.0625 -5.75 C 4.363281 -6.03125 3.734375 -6.171875 3.171875 -6.171875 C 2.671875 -6.171875 2.296875 -6.09375 2.046875 -5.9375 C 1.796875 -5.78125 1.671875 -5.566406 1.671875 -5.296875 C 1.671875 -5.109375 1.71875 -4.945312 1.8125 -4.8125 C 1.90625 -4.6875 2.054688 -4.5625 2.265625 -4.4375 C 2.472656 -4.320312 2.878906 -4.15625 3.484375 -3.9375 C 4.304688 -3.632812 4.859375 -3.332031 5.140625 -3.03125 C 5.429688 -2.726562 5.578125 -2.347656 5.578125 -1.890625 Z M 5.578125 -1.890625 "/></g></g><g style="fill:#000000;fill-opacity:1;"><g transform="translate(397.512747, 181.573219)"><path style="stroke:none" d=""/></g></g><g style="fill:#000000;fill-opacity:1;"><g transform="translate(400.870656, 181.573219)"><path style="stroke:none" d="M 6.765625 0 L 5.5 -4.0625 C 5.414062 -4.3125 5.265625 -4.875 5.046875 -5.75 L 5 -5.75 C 4.832031 -5.019531 4.679688 -4.453125 4.546875 -4.046875 L 3.25 0 L 2.03125 0 L 0.140625 -6.921875 L 1.25 -6.921875 C 1.695312 -5.179688 2.035156 -3.851562 2.265625 -2.9375 C 2.492188 -2.03125 2.628906 -1.421875 2.671875 -1.109375 L 2.71875 -1.109375 C 2.757812 -1.347656 2.832031 -1.65625 2.9375 -2.03125 C 3.039062 -2.414062 3.128906 -2.722656 3.203125 -2.953125 L 4.484375 -6.921875 L 5.609375 -6.921875 L 6.859375 -2.953125 C 7.085938 -2.222656 7.242188 -1.613281 7.328125 -1.125 L 7.390625 -1.125 C 7.398438 -1.28125 7.441406 -1.515625 7.515625 -1.828125 C 7.585938 -2.140625 8.03125 -3.835938 8.84375 -6.921875 L 9.921875 -6.921875 L 8.015625 0 Z M 6.765625 0 "/></g></g><g style="fill:#000000;fill-opacity:1;"><g transform="translate(410.925411, 181.573219)"><path style="stroke:none" d="M 2.15625 0 L 1.109375 0 L 1.109375 -6.921875 L 2.15625 -6.921875 Z M 1.015625 -8.796875 C 1.015625 -9.035156 1.070312 -9.210938 1.1875 -9.328125 C 1.3125 -9.441406 1.460938 -9.5 1.640625 -9.5 C 1.804688 -9.5 1.953125 -9.441406 2.078125 -9.328125 C 2.203125 -9.210938 2.265625 -9.035156 2.265625 -8.796875 C 2.265625 -8.566406 2.203125 -8.390625 2.078125 -8.265625 C 1.953125 -8.148438 1.804688 -8.09375 1.640625 -8.09375 C 1.460938 -8.09375 1.3125 -8.148438 1.1875 -8.265625 C 1.070312 -8.390625 1.015625 -8.566406 1.015625 -8.796875 Z M 1.015625 -8.796875 "/></g></g><g style="fill:#000000;fill-opacity:1;"><g transform="translate(414.194935, 181.573219)"><path style="stroke:none" d="M 3.34375 -0.734375 C 3.53125 -0.734375 3.707031 -0.75 3.875 -0.78125 C 4.050781 -0.8125 4.191406 -0.835938 4.296875 -0.859375 L 4.296875 -0.0625 C 4.179688 -0.0078125 4.015625 0.03125 3.796875 0.0625 C 3.578125 0.101562 3.378906 0.125 3.203125 0.125 C 1.859375 0.125 1.1875 -0.578125 1.1875 -1.984375 L 1.1875 -6.109375 L 0.203125 -6.109375 L 0.203125 -6.609375 L 1.1875 -7.046875 L 1.625 -8.53125 L 2.234375 -8.53125 L 2.234375 -6.921875 L 4.25 -6.921875 L 4.25 -6.109375 L 2.234375 -6.109375 L 2.234375 -2.03125 C 2.234375 -1.613281 2.332031 -1.289062 2.53125 -1.0625 C 2.726562 -0.84375 3 -0.734375 3.34375 -0.734375 Z M 3.34375 -0.734375 "/></g></g><g style="fill:#000000;fill-opacity:1;"><g transform="translate(418.758401, 181.573219)"><path style="stroke:none" d="M 5.84375 0 L 5.84375 -4.484375 C 5.84375 -5.046875 5.710938 -5.460938 5.453125 -5.734375 C 5.203125 -6.015625 4.800781 -6.15625 4.25 -6.15625 C 3.53125 -6.15625 3 -5.957031 2.65625 -5.5625 C 2.320312 -5.164062 2.15625 -4.519531 2.15625 -3.625 L 2.15625 0 L 1.109375 0 L 1.109375 -9.828125 L 2.15625 -9.828125 L 2.15625 -6.859375 C 2.15625 -6.492188 2.140625 -6.195312 2.109375 -5.96875 L 2.171875 -5.96875 C 2.378906 -6.300781 2.671875 -6.5625 3.046875 -6.75 C 3.429688 -6.9375 3.867188 -7.03125 4.359375 -7.03125 C 5.203125 -7.03125 5.832031 -6.828125 6.25 -6.421875 C 6.675781 -6.023438 6.890625 -5.390625 6.890625 -4.515625 L 6.890625 0 Z M 5.84375 0 "/></g></g><g style="fill:#000000;fill-opacity:1;"><g transform="translate(426.69238, 181.573219)"><path style="stroke:none" d=""/></g></g><g style="fill:#000000;fill-opacity:1;"><g transform="translate(430.050263, 181.573219)"><path style="stroke:none" d="M 8.640625 -4.703125 C 8.640625 -3.179688 8.222656 -2.015625 7.390625 -1.203125 C 6.566406 -0.398438 5.378906 0 3.828125 0 L 1.265625 0 L 1.265625 -9.234375 L 4.09375 -9.234375 C 5.53125 -9.234375 6.644531 -8.832031 7.4375 -8.03125 C 8.238281 -7.238281 8.640625 -6.128906 8.640625 -4.703125 Z M 7.5 -4.671875 C 7.5 -5.867188 7.195312 -6.773438 6.59375 -7.390625 C 5.988281 -8.003906 5.09375 -8.3125 3.90625 -8.3125 L 2.34375 -8.3125 L 2.34375 -0.921875 L 3.65625 -0.921875 C 4.9375 -0.921875 5.894531 -1.234375 6.53125 -1.859375 C 7.175781 -2.492188 7.5 -3.429688 7.5 -4.671875 Z M 7.5 -4.671875 "/></g></g><g style="fill:#000000;fill-opacity:1;"><g transform="translate(439.473848, 181.573219)"><path style="stroke:none" d="M 2.15625 0 L 1.109375 0 L 1.109375 -6.921875 L 2.15625 -6.921875 Z M 1.015625 -8.796875 C 1.015625 -9.035156 1.070312 -9.210938 1.1875 -9.328125 C 1.3125 -9.441406 1.460938 -9.5 1.640625 -9.5 C 1.804688 -9.5 1.953125 -9.441406 2.078125 -9.328125 C 2.203125 -9.210938 2.265625 -9.035156 2.265625 -8.796875 C 2.265625 -8.566406 2.203125 -8.390625 2.078125 -8.265625 C 1.953125 -8.148438 1.804688 -8.09375 1.640625 -8.09375 C 1.460938 -8.09375 1.3125 -8.148438 1.1875 -8.265625 C 1.070312 -8.390625 1.015625 -8.566406 1.015625 -8.796875 Z M 1.015625 -8.796875 "/></g></g><g style="fill:#000000;fill-opacity:1;"><g transform="translate(442.743371, 181.573219)"><path style="stroke:none" d="M 6.78125 -6.921875 L 6.78125 -6.265625 L 5.5 -6.109375 C 5.613281 -5.960938 5.71875 -5.769531 5.8125 -5.53125 C 5.90625 -5.289062 5.953125 -5.019531 5.953125 -4.71875 C 5.953125 -4.039062 5.71875 -3.5 5.25 -3.09375 C 4.789062 -2.695312 4.15625 -2.5 3.34375 -2.5 C 3.132812 -2.5 2.941406 -2.515625 2.765625 -2.546875 C 2.316406 -2.304688 2.09375 -2.007812 2.09375 -1.65625 C 2.09375 -1.46875 2.171875 -1.328125 2.328125 -1.234375 C 2.484375 -1.140625 2.753906 -1.09375 3.140625 -1.09375 L 4.359375 -1.09375 C 5.109375 -1.09375 5.679688 -0.9375 6.078125 -0.625 C 6.484375 -0.3125 6.6875 0.144531 6.6875 0.75 C 6.6875 1.519531 6.378906 2.101562 5.765625 2.5 C 5.148438 2.90625 4.253906 3.109375 3.078125 3.109375 C 2.171875 3.109375 1.472656 2.9375 0.984375 2.59375 C 0.492188 2.257812 0.25 1.785156 0.25 1.171875 C 0.25 0.753906 0.382812 0.390625 0.65625 0.078125 C 0.925781 -0.222656 1.300781 -0.429688 1.78125 -0.546875 C 1.601562 -0.617188 1.453125 -0.738281 1.328125 -0.90625 C 1.210938 -1.082031 1.15625 -1.28125 1.15625 -1.5 C 1.15625 -1.75 1.222656 -1.96875 1.359375 -2.15625 C 1.492188 -2.351562 1.707031 -2.539062 2 -2.71875 C 1.644531 -2.863281 1.351562 -3.113281 1.125 -3.46875 C 0.90625 -3.820312 0.796875 -4.226562 0.796875 -4.6875 C 0.796875 -5.4375 1.019531 -6.015625 1.46875 -6.421875 C 1.925781 -6.835938 2.570312 -7.046875 3.40625 -7.046875 C 3.769531 -7.046875 4.097656 -7.003906 4.390625 -6.921875 Z M 1.25 1.15625 C 1.25 1.53125 1.40625 1.816406 1.71875 2.015625 C 2.039062 2.210938 2.5 2.3125 3.09375 2.3125 C 3.96875 2.3125 4.613281 2.175781 5.03125 1.90625 C 5.457031 1.644531 5.671875 1.289062 5.671875 0.84375 C 5.671875 0.46875 5.554688 0.207031 5.328125 0.0625 C 5.097656 -0.0820312 4.664062 -0.15625 4.03125 -0.15625 L 2.765625 -0.15625 C 2.285156 -0.15625 1.910156 -0.0390625 1.640625 0.1875 C 1.378906 0.414062 1.25 0.738281 1.25 1.15625 Z M 1.828125 -4.703125 C 1.828125 -4.222656 1.960938 -3.859375 2.234375 -3.609375 C 2.503906 -3.359375 2.882812 -3.234375 3.375 -3.234375 C 4.40625 -3.234375 4.921875 -3.726562 4.921875 -4.71875 C 4.921875 -5.757812 4.398438 -6.28125 3.359375 -6.28125 C 2.867188 -6.28125 2.488281 -6.144531 2.21875 -5.875 C 1.957031 -5.613281 1.828125 -5.222656 1.828125 -4.703125 Z M 1.828125 -4.703125 "/></g></g><g style="fill:#000000;fill-opacity:1;"><g transform="translate(449.825256, 181.573219)"><path style="stroke:none" d="M 2.15625 0 L 1.109375 0 L 1.109375 -6.921875 L 2.15625 -6.921875 Z M 1.015625 -8.796875 C 1.015625 -9.035156 1.070312 -9.210938 1.1875 -9.328125 C 1.3125 -9.441406 1.460938 -9.5 1.640625 -9.5 C 1.804688 -9.5 1.953125 -9.441406 2.078125 -9.328125 C 2.203125 -9.210938 2.265625 -9.035156 2.265625 -8.796875 C 2.265625 -8.566406 2.203125 -8.390625 2.078125 -8.265625 C 1.953125 -8.148438 1.804688 -8.09375 1.640625 -8.09375 C 1.460938 -8.09375 1.3125 -8.148438 1.1875 -8.265625 C 1.070312 -8.390625 1.015625 -8.566406 1.015625 -8.796875 Z M 1.015625 -8.796875 "/></g></g><g style="fill:#000000;fill-opacity:1;"><g transform="translate(453.09478, 181.573219)"><path style="stroke:none" d="M 3.34375 -0.734375 C 3.53125 -0.734375 3.707031 -0.75 3.875 -0.78125 C 4.050781 -0.8125 4.191406 -0.835938 4.296875 -0.859375 L 4.296875 -0.0625 C 4.179688 -0.0078125 4.015625 0.03125 3.796875 0.0625 C 3.578125 0.101562 3.378906 0.125 3.203125 0.125 C 1.859375 0.125 1.1875 -0.578125 1.1875 -1.984375 L 1.1875 -6.109375 L 0.203125 -6.109375 L 0.203125 -6.609375 L 1.1875 -7.046875 L 1.625 -8.53125 L 2.234375 -8.53125 L 2.234375 -6.921875 L 4.25 -6.921875 L 4.25 -6.109375 L 2.234375 -6.109375 L 2.234375 -2.03125 C 2.234375 -1.613281 2.332031 -1.289062 2.53125 -1.0625 C 2.726562 -0.84375 3 -0.734375 3.34375 -0.734375 Z M 3.34375 -0.734375 "/></g></g><g style="fill:#000000;fill-opacity:1;"><g transform="translate(457.658245, 181.573219)"><path style="stroke:none" d="M 5.375 0 L 5.15625 -0.984375 L 5.109375 -0.984375 C 4.765625 -0.546875 4.421875 -0.25 4.078125 -0.09375 C 3.734375 0.0507812 3.304688 0.125 2.796875 0.125 C 2.109375 0.125 1.566406 -0.0507812 1.171875 -0.40625 C 0.785156 -0.757812 0.59375 -1.265625 0.59375 -1.921875 C 0.59375 -3.316406 1.710938 -4.046875 3.953125 -4.109375 L 5.125 -4.15625 L 5.125 -4.578125 C 5.125 -5.117188 5.003906 -5.519531 4.765625 -5.78125 C 4.535156 -6.039062 4.164062 -6.171875 3.65625 -6.171875 C 3.070312 -6.171875 2.414062 -5.992188 1.6875 -5.640625 L 1.375 -6.4375 C 1.707031 -6.625 2.078125 -6.769531 2.484375 -6.875 C 2.898438 -6.976562 3.3125 -7.03125 3.71875 -7.03125 C 4.539062 -7.03125 5.148438 -6.847656 5.546875 -6.484375 C 5.941406 -6.117188 6.140625 -5.53125 6.140625 -4.71875 L 6.140625 0 Z M 3 -0.734375 C 3.65625 -0.734375 4.164062 -0.910156 4.53125 -1.265625 C 4.90625 -1.628906 5.09375 -2.132812 5.09375 -2.78125 L 5.09375 -3.40625 L 4.046875 -3.359375 C 3.210938 -3.328125 2.609375 -3.195312 2.234375 -2.96875 C 1.867188 -2.738281 1.6875 -2.382812 1.6875 -1.90625 C 1.6875 -1.519531 1.800781 -1.226562 2.03125 -1.03125 C 2.257812 -0.832031 2.582031 -0.734375 3 -0.734375 Z M 3 -0.734375 "/></g></g><g style="fill:#000000;fill-opacity:1;"><g transform="translate(464.847435, 181.573219)"><path style="stroke:none" d="M 2.15625 0 L 1.109375 0 L 1.109375 -9.828125 L 2.15625 -9.828125 Z M 2.15625 0 "/></g></g><g style="fill:#000000;fill-opacity:1;"><g transform="translate(468.116958, 181.573219)"><path style="stroke:none" d=""/></g></g><g style="fill:#000000;fill-opacity:1;"><g transform="translate(471.474841, 181.573219)"><path style="stroke:none" d="M 6.546875 -9.234375 L 7.703125 -9.234375 L 4.375 0 L 3.3125 0 L 0 -9.234375 L 1.140625 -9.234375 L 3.265625 -3.265625 C 3.503906 -2.578125 3.695312 -1.90625 3.84375 -1.25 C 3.988281 -1.9375 4.1875 -2.617188 4.4375 -3.296875 Z M 6.546875 -9.234375 "/></g></g><g style="fill:#000000;fill-opacity:1;"><g transform="translate(479.168977, 181.573219)"><path style="stroke:none" d="M 4.03125 0.125 C 3.007812 0.125 2.203125 -0.1875 1.609375 -0.8125 C 1.015625 -1.4375 0.71875 -2.300781 0.71875 -3.40625 C 0.71875 -4.519531 0.992188 -5.40625 1.546875 -6.0625 C 2.097656 -6.71875 2.835938 -7.046875 3.765625 -7.046875 C 4.628906 -7.046875 5.3125 -6.757812 5.8125 -6.1875 C 6.320312 -5.625 6.578125 -4.875 6.578125 -3.9375 L 6.578125 -3.265625 L 1.8125 -3.265625 C 1.832031 -2.453125 2.035156 -1.835938 2.421875 -1.421875 C 2.816406 -1.003906 3.367188 -0.796875 4.078125 -0.796875 C 4.816406 -0.796875 5.550781 -0.945312 6.28125 -1.25 L 6.28125 -0.328125 C 5.914062 -0.160156 5.566406 -0.046875 5.234375 0.015625 C 4.898438 0.0859375 4.5 0.125 4.03125 0.125 Z M 3.75 -6.171875 C 3.195312 -6.171875 2.753906 -5.988281 2.421875 -5.625 C 2.085938 -5.257812 1.894531 -4.757812 1.84375 -4.125 L 5.453125 -4.125 C 5.453125 -4.78125 5.304688 -5.285156 5.015625 -5.640625 C 4.722656 -5.992188 4.300781 -6.171875 3.75 -6.171875 Z M 3.75 -6.171875 "/></g></g><g style="fill:#000000;fill-opacity:1;"><g transform="translate(486.421265, 181.573219)"><path style="stroke:none" d="M 2.15625 0 L 1.109375 0 L 1.109375 -9.828125 L 2.15625 -9.828125 Z M 2.15625 0 "/></g></g><g style="fill:#000000;fill-opacity:1;"><g transform="translate(489.690814, 181.573219)"><path style="stroke:none" d="M 7.09375 -3.46875 C 7.09375 -2.34375 6.804688 -1.460938 6.234375 -0.828125 C 5.660156 -0.191406 4.875 0.125 3.875 0.125 C 3.257812 0.125 2.710938 -0.0195312 2.234375 -0.3125 C 1.753906 -0.601562 1.378906 -1.019531 1.109375 -1.5625 C 0.847656 -2.101562 0.71875 -2.738281 0.71875 -3.46875 C 0.71875 -4.59375 1 -5.46875 1.5625 -6.09375 C 2.132812 -6.726562 2.921875 -7.046875 3.921875 -7.046875 C 4.890625 -7.046875 5.660156 -6.722656 6.234375 -6.078125 C 6.804688 -5.429688 7.09375 -4.5625 7.09375 -3.46875 Z M 1.8125 -3.46875 C 1.8125 -2.582031 1.988281 -1.90625 2.34375 -1.4375 C 2.695312 -0.976562 3.21875 -0.75 3.90625 -0.75 C 4.59375 -0.75 5.113281 -0.976562 5.46875 -1.4375 C 5.820312 -1.90625 6 -2.582031 6 -3.46875 C 6 -4.34375 5.820312 -5.007812 5.46875 -5.46875 C 5.113281 -5.925781 4.585938 -6.15625 3.890625 -6.15625 C 3.203125 -6.15625 2.679688 -5.929688 2.328125 -5.484375 C 1.984375 -5.035156 1.8125 -4.363281 1.8125 -3.46875 Z M 1.8125 -3.46875 "/></g></g><g style="fill:#000000;fill-opacity:1;"><g transform="translate(497.498544, 181.573219)"><path style="stroke:none" d="M 3.875 0.125 C 2.875 0.125 2.097656 -0.179688 1.546875 -0.796875 C 0.992188 -1.410156 0.71875 -2.285156 0.71875 -3.421875 C 0.71875 -4.578125 1 -5.46875 1.5625 -6.09375 C 2.125 -6.726562 2.921875 -7.046875 3.953125 -7.046875 C 4.285156 -7.046875 4.617188 -7.007812 4.953125 -6.9375 C 5.285156 -6.863281 5.546875 -6.78125 5.734375 -6.6875 L 5.40625 -5.796875 C 5.175781 -5.890625 4.921875 -5.96875 4.640625 -6.03125 C 4.367188 -6.09375 4.128906 -6.125 3.921875 -6.125 C 2.515625 -6.125 1.8125 -5.226562 1.8125 -3.4375 C 1.8125 -2.582031 1.984375 -1.925781 2.328125 -1.46875 C 2.671875 -1.019531 3.179688 -0.796875 3.859375 -0.796875 C 4.429688 -0.796875 5.019531 -0.914062 5.625 -1.15625 L 5.625 -0.234375 C 5.164062 0.00390625 4.582031 0.125 3.875 0.125 Z M 3.875 0.125 "/></g></g><g style="fill:#000000;fill-opacity:1;"><g transform="translate(503.652605, 181.573219)"><path style="stroke:none" d="M 2.15625 0 L 1.109375 0 L 1.109375 -6.921875 L 2.15625 -6.921875 Z M 1.015625 -8.796875 C 1.015625 -9.035156 1.070312 -9.210938 1.1875 -9.328125 C 1.3125 -9.441406 1.460938 -9.5 1.640625 -9.5 C 1.804688 -9.5 1.953125 -9.441406 2.078125 -9.328125 C 2.203125 -9.210938 2.265625 -9.035156 2.265625 -8.796875 C 2.265625 -8.566406 2.203125 -8.390625 2.078125 -8.265625 C 1.953125 -8.148438 1.804688 -8.09375 1.640625 -8.09375 C 1.460938 -8.09375 1.3125 -8.148438 1.1875 -8.265625 C 1.070312 -8.390625 1.015625 -8.566406 1.015625 -8.796875 Z M 1.015625 -8.796875 "/></g></g><g style="fill:#000000;fill-opacity:1;"><g transform="translate(506.922128, 181.573219)"><path style="stroke:none" d="M 3.34375 -0.734375 C 3.53125 -0.734375 3.707031 -0.75 3.875 -0.78125 C 4.050781 -0.8125 4.191406 -0.835938 4.296875 -0.859375 L 4.296875 -0.0625 C 4.179688 -0.0078125 4.015625 0.03125 3.796875 0.0625 C 3.578125 0.101562 3.378906 0.125 3.203125 0.125 C 1.859375 0.125 1.1875 -0.578125 1.1875 -1.984375 L 1.1875 -6.109375 L 0.203125 -6.109375 L 0.203125 -6.609375 L 1.1875 -7.046875 L 1.625 -8.53125 L 2.234375 -8.53125 L 2.234375 -6.921875 L 4.25 -6.921875 L 4.25 -6.109375 L 2.234375 -6.109375 L 2.234375 -2.03125 C 2.234375 -1.613281 2.332031 -1.289062 2.53125 -1.0625 C 2.726562 -0.84375 3 -0.734375 3.34375 -0.734375 Z M 3.34375 -0.734375 "/></g></g><g style="fill:#000000;fill-opacity:1;"><g transform="translate(511.485594, 181.573219)"><path style="stroke:none" d="M 0.015625 -6.921875 L 1.140625 -6.921875 L 2.65625 -2.96875 C 2.988281 -2.070312 3.191406 -1.421875 3.265625 -1.015625 L 3.328125 -1.015625 C 3.378906 -1.234375 3.488281 -1.601562 3.65625 -2.125 C 3.832031 -2.644531 4.40625 -4.242188 5.375 -6.921875 L 6.5 -6.921875 L 3.53125 0.953125 C 3.238281 1.734375 2.894531 2.285156 2.5 2.609375 C 2.101562 2.941406 1.617188 3.109375 1.046875 3.109375 C 0.722656 3.109375 0.40625 3.070312 0.09375 3 L 0.09375 2.15625 C 0.332031 2.207031 0.59375 2.234375 0.875 2.234375 C 1.59375 2.234375 2.109375 1.828125 2.421875 1.015625 L 2.8125 0.03125 Z M 0.015625 -6.921875 "/></g></g></g></svg>