<svg xmlns="http://www.w3.org/2000/svg" xmlns:xlink="http://www.w3.org/1999/xlink" width="80" zoomAndPan="magnify" viewBox="0 0 375 374.999991" height="80" preserveAspectRatio="xMidYMid meet" version="1.2"><g id="1712908ffc"><path style="fill:none;stroke-width:48;stroke-linecap:round;stroke-linejoin:miter;stroke:#fbbf24;stroke-opacity:1;stroke-miterlimit:4;" d="M 24.001011 24.001908 L 255.091773 24.001908 " transform="matrix(0.74979,0,0,0.74979,134.180064,94.386423)"/><path style="fill:none;stroke-width:48;stroke-linecap:round;stroke-linejoin:miter;stroke:#000000;stroke-opacity:1;stroke-miterlimit:4;" d="M 24.00101 24.001907 L 255.091772 24.001907 " transform="matrix(0.74979,0,0,0.74979,122.180065,82.386424)"/><path style="fill:none;stroke-width:48;stroke-linecap:round;stroke-linejoin:miter;stroke:#fbbf24;stroke-opacity:1;stroke-miterlimit:4;" d="M 23.99769 23.999629 L 348.976878 23.999629 " transform="matrix(0.75,-0.000000000000000093,0.000000000000000093,0.75,42.689234,148.613561)"/><path style="fill:none;stroke-width:48;stroke-linecap:round;stroke-linejoin:miter;stroke:#000000;stroke-opacity:1;stroke-miterlimit:4;" d="M 23.999998 23.999628 L 348.973978 23.999628 " transform="matrix(0.75,-0.000000000000000093,0.000000000000000093,0.75,31.500002,136.613561)"/><path style="fill:none;stroke-width:48;stroke-linecap:round;stroke-linejoin:miter;stroke:#fbbf24;stroke-opacity:1;stroke-miterlimit:4;" d="M 23.99741 24.002463 L 261.299079 24.002463 " transform="matrix(0.749261,-0.000000000000000279,0.000000000000000279,0.749261,88.742343,202.613557)"/><path style="fill:none;stroke-width:48;stroke-linecap:round;stroke-linejoin:miter;stroke:#000000;stroke-opacity:1;stroke-miterlimit:4;" d="M 23.997613 24.002462 L 261.294069 24.002462 " transform="matrix(0.749261,-0.000000000000000279,0.000000000000000279,0.749261,78.589847,190.613558)"/><path style="fill:none;stroke-width:48;stroke-linecap:round;stroke-linejoin:miter;stroke:#fbbf24;stroke-opacity:1;stroke-miterlimit:4;" d="M 24.000097 24.001103 L 154.372161 24.001103 " transform="matrix(0.748489,0,0,0.748489,149.688539,256.613568)"/><path style="fill:none;stroke-width:48;stroke-linecap:round;stroke-linejoin:miter;stroke:#000000;stroke-opacity:1;stroke-miterlimit:4;" d="M 24.000959 24.001121 L 154.373022 24.001121 " transform="matrix(0.748489,0.000000000000000239,-0.000000000000000239,0.748489,141.250394,244.613554)"/></g></svg>