<svg xmlns="http://www.w3.org/2000/svg" xmlns:xlink="http://www.w3.org/1999/xlink" width="500" zoomAndPan="magnify" viewBox="0 0 375 374.999991" height="500" preserveAspectRatio="xMidYMid meet" version="1.2"><g id="684570c434"><path style="fill:none;stroke-width:48;stroke-linecap:round;stroke-linejoin:miter;stroke:#fbbf24;stroke-opacity:1;stroke-miterlimit:4;" d="M 24.001011 24.001908 L 255.091773 24.001908 " transform="matrix(0.74979,0,0,0.74979,134.180064,94.386423)"/><path style="fill:none;stroke-width:48;stroke-linecap:round;stroke-linejoin:miter;stroke:#fbbf24;stroke-opacity:1;stroke-miterlimit:4;" d="M 23.999999 23.999629 L 376.000022 23.999629 " transform="matrix(0.75,-0.000000000000000093,0.000000000000000093,0.75,43.500002,148.613561)"/><path style="fill:none;stroke-width:48;stroke-linecap:round;stroke-linejoin:miter;stroke:#fbbf24;stroke-opacity:1;stroke-miterlimit:4;" d="M 23.998828 23.998464 L 313.214719 23.998464 " transform="matrix(0.749548,-0.000000000000000279,0.000000000000000279,0.749548,90.589847,202.613557)"/><path style="fill:none;stroke-width:48;stroke-linecap:round;stroke-linejoin:miter;stroke:#fbbf24;stroke-opacity:1;stroke-miterlimit:4;" d="M 23.999477 23.999619 L 229.666157 23.999619 " transform="matrix(0.75,0,0,0.75,153.250394,256.613568)"/><path style="fill:none;stroke-width:48;stroke-linecap:round;stroke-linejoin:miter;stroke:#000000;stroke-opacity:1;stroke-miterlimit:4;" d="M 24.001 24.001907 L 255.091762 24.001907 " transform="matrix(0.74979,0,0,0.74979,122.180072,82.386424)"/><path style="fill:none;stroke-width:48;stroke-linecap:round;stroke-linejoin:miter;stroke:#000000;stroke-opacity:1;stroke-miterlimit:4;" d="M 23.999998 23.999628 L 376.000021 23.999628 " transform="matrix(0.75,-0.000000000000000093,0.000000000000000093,0.75,31.500002,136.613561)"/><path style="fill:none;stroke-width:48;stroke-linecap:round;stroke-linejoin:miter;stroke:#000000;stroke-opacity:1;stroke-miterlimit:4;" d="M 23.998827 23.998463 L 313.214718 23.998463 " transform="matrix(0.749548,-0.000000000000000279,0.000000000000000279,0.749548,78.589847,190.613558)"/><path style="fill:none;stroke-width:48;stroke-linecap:round;stroke-linejoin:miter;stroke:#000000;stroke-opacity:1;stroke-miterlimit:4;" d="M 23.999476 23.999637 L 229.666156 23.999637 " transform="matrix(0.75,0.000000000000000168,-0.000000000000000168,0.75,141.250394,244.613554)"/></g></svg>